<?xml version="1.0" encoding="UTF-8" standalone="no"?>
<!DOCTYPE svg PUBLIC "-//W3C//DTD SVG 1.1//EN"
 "http://www.w3.org/Graphics/SVG/1.1/DTD/svg11.dtd">
<!-- Generated by graphviz version 2.40.1 (20161225.0304)
 -->
<!-- Title: dependencies Pages: 1 -->
<svg width="1142pt" height="284pt"
 viewBox="0.00 0.00 1142.00 284.00" xmlns="http://www.w3.org/2000/svg" xmlns:xlink="http://www.w3.org/1999/xlink">
<g id="graph0" class="graph" transform="scale(1 1) rotate(0) translate(4 280)">
<title>dependencies</title>
<polygon fill="#ffffff" stroke="transparent" points="-4,4 -4,-280 1138,-280 1138,4 -4,4"/>
<text text-anchor="start" x="546.0091" y="-42.4" font-family="sans-serif" font-weight="bold" font-size="14.00" fill="#000000">Legend</text>
<polygon fill="#ffffb3" stroke="transparent" points="333,-10 333,-30 353,-30 353,-10 333,-10"/>
<text text-anchor="start" x="356.629" y="-15.4" font-family="sans-serif" font-size="14.00" fill="#000000"> &#160;Declarations</text>
<polygon fill="#8dd3c7" stroke="transparent" points="446,-10 446,-30 466,-30 466,-10 446,-10"/>
<text text-anchor="start" x="469.7251" y="-15.4" font-family="sans-serif" font-size="14.00" fill="#000000"> &#160;Module</text>
<polygon fill="#80b1d3" stroke="transparent" points="532,-10 532,-30 552,-30 552,-10 532,-10"/>
<text text-anchor="start" x="555.7812" y="-15.4" font-family="sans-serif" font-size="14.00" fill="#000000"> &#160;Bootstrap</text>
<polygon fill="#fdb462" stroke="transparent" points="629,-10 629,-30 649,-30 649,-10 629,-10"/>
<text text-anchor="start" x="652.6732" y="-15.4" font-family="sans-serif" font-size="14.00" fill="#000000"> &#160;Providers</text>
<polygon fill="#fb8072" stroke="transparent" points="725,-10 725,-30 745,-30 745,-10 725,-10"/>
<text text-anchor="start" x="748.7258" y="-15.4" font-family="sans-serif" font-size="14.00" fill="#000000"> &#160;Exports</text>
<g id="clust1" class="cluster">
<title>cluster_UtilsPipesModule</title>
<polygon fill="none" stroke="#000000" stroke-dasharray="1,5" points="8,-70 8,-268 1126,-268 1126,-70 8,-70"/>
</g>
<g id="clust2" class="cluster">
<title>cluster_UtilsPipesModule_declarations</title>
<polygon fill="none" stroke="#000000" points="31,-78 31,-130 1102,-130 1102,-78 31,-78"/>
</g>
<g id="clust13" class="cluster">
<title>cluster_UtilsPipesModule_exports</title>
<polygon fill="none" stroke="#000000" points="16,-208 16,-260 1118,-260 1118,-208 16,-208"/>
</g>
<!-- DefaultValuePipe -->
<g id="node1" class="node">
<title>DefaultValuePipe</title>
<polygon fill="#ffffb3" stroke="#000000" points="1094.2922,-122 977.7078,-122 977.7078,-86 1094.2922,-86 1094.2922,-122"/>
<text text-anchor="middle" x="1036" y="-99.8" font-family="Times,serif" font-size="14.00" fill="#000000">DefaultValuePipe</text>
</g>
<!-- UtilsPipesModule -->
<g id="node10" class="node">
<title>UtilsPipesModule</title>
<polygon fill="#8dd3c7" stroke="#000000" points="604.6052,-187 601.6052,-191 580.6052,-191 577.6052,-187 487.3948,-187 487.3948,-151 604.6052,-151 604.6052,-187"/>
<text text-anchor="middle" x="546" y="-164.8" font-family="Times,serif" font-size="14.00" fill="#000000">UtilsPipesModule</text>
</g>
<!-- DefaultValuePipe&#45;&gt;UtilsPipesModule -->
<g id="edge1" class="edge">
<title>DefaultValuePipe&#45;&gt;UtilsPipesModule</title>
<path fill="none" stroke="#000000" d="M983.9791,-122.2222C983.9791,-140.8285 983.9791,-167 983.9791,-167 983.9791,-167 614.6133,-167 614.6133,-167"/>
<polygon fill="#000000" stroke="#000000" points="614.6134,-163.5001 604.6133,-167 614.6133,-170.5001 614.6134,-163.5001"/>
</g>
<!-- IsEmptyPipe -->
<g id="node2" class="node">
<title>IsEmptyPipe</title>
<polygon fill="#ffffb3" stroke="#000000" points="960.3274,-122 871.6726,-122 871.6726,-86 960.3274,-86 960.3274,-122"/>
<text text-anchor="middle" x="916" y="-99.8" font-family="Times,serif" font-size="14.00" fill="#000000">IsEmptyPipe</text>
</g>
<!-- IsEmptyPipe&#45;&gt;UtilsPipesModule -->
<g id="edge2" class="edge">
<title>IsEmptyPipe&#45;&gt;UtilsPipesModule</title>
<path fill="none" stroke="#000000" d="M875.9616,-122.0225C875.9616,-139.3734 875.9616,-163 875.9616,-163 875.9616,-163 614.6103,-163 614.6103,-163"/>
<polygon fill="#000000" stroke="#000000" points="614.6103,-159.5001 604.6103,-163 614.6103,-166.5001 614.6103,-159.5001"/>
</g>
<!-- IsNotEmptyPipe -->
<g id="node3" class="node">
<title>IsNotEmptyPipe</title>
<polygon fill="#ffffb3" stroke="#000000" points="853.8245,-122 744.1755,-122 744.1755,-86 853.8245,-86 853.8245,-122"/>
<text text-anchor="middle" x="799" y="-99.8" font-family="Times,serif" font-size="14.00" fill="#000000">IsNotEmptyPipe</text>
</g>
<!-- IsNotEmptyPipe&#45;&gt;UtilsPipesModule -->
<g id="edge3" class="edge">
<title>IsNotEmptyPipe&#45;&gt;UtilsPipesModule</title>
<path fill="none" stroke="#000000" d="M818.9707,-122.0091C818.9707,-138.0494 818.9707,-159 818.9707,-159 818.9707,-159 614.5591,-159 614.5591,-159"/>
<polygon fill="#000000" stroke="#000000" points="614.5591,-155.5001 604.5591,-159 614.559,-162.5001 614.5591,-155.5001"/>
</g>
<!-- IsNotNullPipe -->
<g id="node4" class="node">
<title>IsNotNullPipe</title>
<polygon fill="#ffffb3" stroke="#000000" points="726.3781,-122 629.6219,-122 629.6219,-86 726.3781,-86 726.3781,-122"/>
<text text-anchor="middle" x="678" y="-99.8" font-family="Times,serif" font-size="14.00" fill="#000000">IsNotNullPipe</text>
</g>
<!-- IsNotNullPipe&#45;&gt;UtilsPipesModule -->
<g id="edge4" class="edge">
<title>IsNotNullPipe&#45;&gt;UtilsPipesModule</title>
<path fill="none" stroke="#000000" d="M694.563,-122.1243C694.563,-136.7832 694.563,-155 694.563,-155 694.563,-155 614.716,-155 614.716,-155"/>
<polygon fill="#000000" stroke="#000000" points="614.7161,-151.5001 604.716,-155 614.716,-158.5001 614.7161,-151.5001"/>
</g>
<!-- IsNotUndefinedPipe -->
<g id="node5" class="node">
<title>IsNotUndefinedPipe</title>
<polygon fill="#ffffb3" stroke="#000000" points="611.5772,-122 480.4228,-122 480.4228,-86 611.5772,-86 611.5772,-122"/>
<text text-anchor="middle" x="546" y="-99.8" font-family="Times,serif" font-size="14.00" fill="#000000">IsNotUndefinedPipe</text>
</g>
<!-- IsNotUndefinedPipe&#45;&gt;UtilsPipesModule -->
<g id="edge5" class="edge">
<title>IsNotUndefinedPipe&#45;&gt;UtilsPipesModule</title>
<path fill="none" stroke="#000000" d="M546,-122.1061C546,-122.1061 546,-140.991 546,-140.991"/>
<polygon fill="#000000" stroke="#000000" points="542.5001,-140.9909 546,-150.991 549.5001,-140.991 542.5001,-140.9909"/>
</g>
<!-- IsNullPipe -->
<g id="node6" class="node">
<title>IsNullPipe</title>
<polygon fill="#ffffb3" stroke="#000000" points="462.8809,-122 387.1191,-122 387.1191,-86 462.8809,-86 462.8809,-122"/>
<text text-anchor="middle" x="425" y="-99.8" font-family="Times,serif" font-size="14.00" fill="#000000">IsNullPipe</text>
</g>
<!-- IsNullPipe&#45;&gt;UtilsPipesModule -->
<g id="edge6" class="edge">
<title>IsNullPipe&#45;&gt;UtilsPipesModule</title>
<path fill="none" stroke="#000000" d="M436.1468,-122.1243C436.1468,-136.7832 436.1468,-155 436.1468,-155 436.1468,-155 477.2142,-155 477.2142,-155"/>
<polygon fill="#000000" stroke="#000000" points="477.2142,-158.5001 487.2142,-155 477.2142,-151.5001 477.2142,-158.5001"/>
</g>
<!-- IsUndefinedPipe -->
<g id="node7" class="node">
<title>IsUndefinedPipe</title>
<polygon fill="#ffffb3" stroke="#000000" points="369.08,-122 258.92,-122 258.92,-86 369.08,-86 369.08,-122"/>
<text text-anchor="middle" x="314" y="-99.8" font-family="Times,serif" font-size="14.00" fill="#000000">IsUndefinedPipe</text>
</g>
<!-- IsUndefinedPipe&#45;&gt;UtilsPipesModule -->
<g id="edge7" class="edge">
<title>IsUndefinedPipe&#45;&gt;UtilsPipesModule</title>
<path fill="none" stroke="#000000" d="M328.8467,-122.0091C328.8467,-138.0494 328.8467,-159 328.8467,-159 328.8467,-159 477.2352,-159 477.2352,-159"/>
<polygon fill="#000000" stroke="#000000" points="477.2352,-162.5001 487.2352,-159 477.2351,-155.5001 477.2352,-162.5001"/>
</g>
<!-- ProgressPipe -->
<g id="node8" class="node">
<title>ProgressPipe</title>
<polygon fill="#ffffb3" stroke="#000000" points="240.5955,-122 151.4045,-122 151.4045,-86 240.5955,-86 240.5955,-122"/>
<text text-anchor="middle" x="196" y="-99.8" font-family="Times,serif" font-size="14.00" fill="#000000">ProgressPipe</text>
</g>
<!-- ProgressPipe&#45;&gt;UtilsPipesModule -->
<g id="edge8" class="edge">
<title>ProgressPipe&#45;&gt;UtilsPipesModule</title>
<path fill="none" stroke="#000000" d="M236.4227,-122.0225C236.4227,-139.3734 236.4227,-163 236.4227,-163 236.4227,-163 477.4069,-163 477.4069,-163"/>
<polygon fill="#000000" stroke="#000000" points="477.407,-166.5001 487.4069,-163 477.4069,-159.5001 477.407,-166.5001"/>
</g>
<!-- SafeHtmlPipe -->
<g id="node9" class="node">
<title>SafeHtmlPipe</title>
<polygon fill="#ffffb3" stroke="#000000" points="133.0397,-122 38.9603,-122 38.9603,-86 133.0397,-86 133.0397,-122"/>
<text text-anchor="middle" x="86" y="-99.8" font-family="Times,serif" font-size="14.00" fill="#000000">SafeHtmlPipe</text>
</g>
<!-- SafeHtmlPipe&#45;&gt;UtilsPipesModule -->
<g id="edge9" class="edge">
<title>SafeHtmlPipe&#45;&gt;UtilsPipesModule</title>
<path fill="none" stroke="#000000" d="M127.6443,-122.2222C127.6443,-140.8285 127.6443,-167 127.6443,-167 127.6443,-167 477.3889,-167 477.3889,-167"/>
<polygon fill="#000000" stroke="#000000" points="477.389,-170.5001 487.3889,-167 477.3889,-163.5001 477.389,-170.5001"/>
</g>
<!-- DefaultValuePipe  -->
<g id="node11" class="node">
<title>DefaultValuePipe </title>
<polygon fill="#fb8072" stroke="#000000" points="1109.792,-252 990.208,-252 990.208,-216 1109.792,-216 1109.792,-252"/>
<text text-anchor="middle" x="1050" y="-229.8" font-family="Times,serif" font-size="14.00" fill="#000000">DefaultValuePipe </text>
</g>
<!-- UtilsPipesModule&#45;&gt;DefaultValuePipe  -->
<g id="edge10" class="edge">
<title>UtilsPipesModule&#45;&gt;DefaultValuePipe </title>
<path fill="none" stroke="#000000" stroke-dasharray="5,2" d="M604.8603,-171C736.2787,-171 1042.125,-171 1042.125,-171 1042.125,-171 1042.125,-205.7778 1042.125,-205.7778"/>
<polygon fill="#000000" stroke="#000000" points="1038.6251,-205.7778 1042.125,-215.7778 1045.6251,-205.7778 1038.6251,-205.7778"/>
</g>
<!-- IsEmptyPipe  -->
<g id="node12" class="node">
<title>IsEmptyPipe </title>
<polygon fill="#fb8072" stroke="#000000" points="971.827,-252 880.173,-252 880.173,-216 971.827,-216 971.827,-252"/>
<text text-anchor="middle" x="926" y="-229.8" font-family="Times,serif" font-size="14.00" fill="#000000">IsEmptyPipe </text>
</g>
<!-- UtilsPipesModule&#45;&gt;IsEmptyPipe  -->
<g id="edge11" class="edge">
<title>UtilsPipesModule&#45;&gt;IsEmptyPipe </title>
<path fill="none" stroke="#000000" stroke-dasharray="5,2" d="M604.8686,-175C710.2274,-175 920.125,-175 920.125,-175 920.125,-175 920.125,-205.9775 920.125,-205.9775"/>
<polygon fill="#000000" stroke="#000000" points="916.6251,-205.9774 920.125,-215.9775 923.6251,-205.9775 916.6251,-205.9774"/>
</g>
<!-- IsNotEmptyPipe  -->
<g id="node13" class="node">
<title>IsNotEmptyPipe </title>
<polygon fill="#fb8072" stroke="#000000" points="862.3241,-252 749.6759,-252 749.6759,-216 862.3241,-216 862.3241,-252"/>
<text text-anchor="middle" x="806" y="-229.8" font-family="Times,serif" font-size="14.00" fill="#000000">IsNotEmptyPipe </text>
</g>
<!-- UtilsPipesModule&#45;&gt;IsNotEmptyPipe  -->
<g id="edge12" class="edge">
<title>UtilsPipesModule&#45;&gt;IsNotEmptyPipe </title>
<path fill="none" stroke="#000000" stroke-dasharray="5,2" d="M604.5949,-179C675.1471,-179 784.2793,-179 784.2793,-179 784.2793,-179 784.2793,-205.9909 784.2793,-205.9909"/>
<polygon fill="#000000" stroke="#000000" points="780.7794,-205.9909 784.2793,-215.9909 787.7794,-205.991 780.7794,-205.9909"/>
</g>
<!-- IsNotNullPipe  -->
<g id="node14" class="node">
<title>IsNotNullPipe </title>
<polygon fill="#fb8072" stroke="#000000" points="731.3787,-252 630.6213,-252 630.6213,-216 731.3787,-216 731.3787,-252"/>
<text text-anchor="middle" x="681" y="-229.8" font-family="Times,serif" font-size="14.00" fill="#000000">IsNotNullPipe </text>
</g>
<!-- UtilsPipesModule&#45;&gt;IsNotNullPipe  -->
<g id="edge13" class="edge">
<title>UtilsPipesModule&#45;&gt;IsNotNullPipe </title>
<path fill="none" stroke="#000000" stroke-dasharray="5,2" d="M604.6854,-183C633.7427,-183 662.687,-183 662.687,-183 662.687,-183 662.687,-205.8757 662.687,-205.8757"/>
<polygon fill="#000000" stroke="#000000" points="659.1871,-205.8757 662.687,-215.8757 666.1871,-205.8757 659.1871,-205.8757"/>
</g>
<!-- IsNotUndefinedPipe  -->
<g id="node15" class="node">
<title>IsNotUndefinedPipe </title>
<polygon fill="#fb8072" stroke="#000000" points="613.0779,-252 478.9221,-252 478.9221,-216 613.0779,-216 613.0779,-252"/>
<text text-anchor="middle" x="546" y="-229.8" font-family="Times,serif" font-size="14.00" fill="#000000">IsNotUndefinedPipe </text>
</g>
<!-- UtilsPipesModule&#45;&gt;IsNotUndefinedPipe  -->
<g id="edge14" class="edge">
<title>UtilsPipesModule&#45;&gt;IsNotUndefinedPipe </title>
<path fill="none" stroke="#000000" stroke-dasharray="5,2" d="M546,-187.1061C546,-187.1061 546,-205.991 546,-205.991"/>
<polygon fill="#000000" stroke="#000000" points="542.5001,-205.9909 546,-215.991 549.5001,-205.991 542.5001,-205.9909"/>
</g>
<!-- IsNullPipe  -->
<g id="node16" class="node">
<title>IsNullPipe </title>
<polygon fill="#fb8072" stroke="#000000" points="460.8817,-252 381.1183,-252 381.1183,-216 460.8817,-216 460.8817,-252"/>
<text text-anchor="middle" x="421" y="-229.8" font-family="Times,serif" font-size="14.00" fill="#000000">IsNullPipe </text>
</g>
<!-- UtilsPipesModule&#45;&gt;IsNullPipe  -->
<g id="edge15" class="edge">
<title>UtilsPipesModule&#45;&gt;IsNullPipe </title>
<path fill="none" stroke="#000000" stroke-dasharray="5,2" d="M487.4426,-183C451.2254,-183 411.6032,-183 411.6032,-183 411.6032,-183 411.6032,-205.8757 411.6032,-205.8757"/>
<polygon fill="#000000" stroke="#000000" points="408.1033,-205.8757 411.6032,-215.8757 415.1033,-205.8757 408.1033,-205.8757"/>
</g>
<!-- IsUndefinedPipe  -->
<g id="node17" class="node">
<title>IsUndefinedPipe </title>
<polygon fill="#fb8072" stroke="#000000" points="363.5808,-252 250.4192,-252 250.4192,-216 363.5808,-216 363.5808,-252"/>
<text text-anchor="middle" x="307" y="-229.8" font-family="Times,serif" font-size="14.00" fill="#000000">IsUndefinedPipe </text>
</g>
<!-- UtilsPipesModule&#45;&gt;IsUndefinedPipe  -->
<g id="edge16" class="edge">
<title>UtilsPipesModule&#45;&gt;IsUndefinedPipe </title>
<path fill="none" stroke="#000000" stroke-dasharray="5,2" d="M487.2127,-179C412.7201,-179 293.9033,-179 293.9033,-179 293.9033,-179 293.9033,-205.9909 293.9033,-205.9909"/>
<polygon fill="#000000" stroke="#000000" points="290.4034,-205.9909 293.9033,-215.9909 297.4034,-205.991 290.4034,-205.9909"/>
</g>
<!-- ProgressPipe  -->
<g id="node18" class="node">
<title>ProgressPipe </title>
<polygon fill="#fb8072" stroke="#000000" points="232.0963,-252 139.9037,-252 139.9037,-216 232.0963,-216 232.0963,-252"/>
<text text-anchor="middle" x="186" y="-229.8" font-family="Times,serif" font-size="14.00" fill="#000000">ProgressPipe </text>
</g>
<!-- UtilsPipesModule&#45;&gt;ProgressPipe  -->
<g id="edge17" class="edge">
<title>UtilsPipesModule&#45;&gt;ProgressPipe </title>
<path fill="none" stroke="#000000" stroke-dasharray="5,2" d="M487.1259,-175C386.429,-175 191.875,-175 191.875,-175 191.875,-175 191.875,-205.9775 191.875,-205.9775"/>
<polygon fill="#000000" stroke="#000000" points="188.3751,-205.9774 191.875,-215.9775 195.3751,-205.9775 188.3751,-205.9774"/>
</g>
<!-- SafeHtmlPipe  -->
<g id="node19" class="node">
<title>SafeHtmlPipe </title>
<polygon fill="#fb8072" stroke="#000000" points="122.0386,-252 23.9614,-252 23.9614,-216 122.0386,-216 122.0386,-252"/>
<text text-anchor="middle" x="73" y="-229.8" font-family="Times,serif" font-size="14.00" fill="#000000">SafeHtmlPipe </text>
</g>
<!-- UtilsPipesModule&#45;&gt;SafeHtmlPipe  -->
<g id="edge18" class="edge">
<title>UtilsPipesModule&#45;&gt;SafeHtmlPipe </title>
<path fill="none" stroke="#000000" stroke-dasharray="5,2" d="M487.0283,-171C361.7351,-171 80.375,-171 80.375,-171 80.375,-171 80.375,-205.7778 80.375,-205.7778"/>
<polygon fill="#000000" stroke="#000000" points="76.8751,-205.7778 80.375,-215.7778 83.8751,-205.7778 76.8751,-205.7778"/>
</g>
</g>
</svg>
