<?xml version="1.0" encoding="UTF-8" standalone="no"?>
<!DOCTYPE svg PUBLIC "-//W3C//DTD SVG 1.1//EN"
 "http://www.w3.org/Graphics/SVG/1.1/DTD/svg11.dtd">
<!-- Generated by graphviz version 2.40.1 (20161225.0304)
 -->
<!-- Title: dependencies Pages: 1 -->
<svg width="3132pt" height="284pt"
 viewBox="0.00 0.00 3132.00 284.00" xmlns="http://www.w3.org/2000/svg" xmlns:xlink="http://www.w3.org/1999/xlink">
<g id="graph0" class="graph" transform="scale(1 1) rotate(0) translate(4 280)">
<title>dependencies</title>
<polygon fill="#ffffff" stroke="transparent" points="-4,4 -4,-280 3128,-280 3128,4 -4,4"/>
<text text-anchor="start" x="1541.0091" y="-42.4" font-family="sans-serif" font-weight="bold" font-size="14.00" fill="#000000">Legend</text>
<polygon fill="#ffffb3" stroke="transparent" points="1328,-10 1328,-30 1348,-30 1348,-10 1328,-10"/>
<text text-anchor="start" x="1351.629" y="-15.4" font-family="sans-serif" font-size="14.00" fill="#000000"> &#160;Declarations</text>
<polygon fill="#8dd3c7" stroke="transparent" points="1441,-10 1441,-30 1461,-30 1461,-10 1441,-10"/>
<text text-anchor="start" x="1464.7251" y="-15.4" font-family="sans-serif" font-size="14.00" fill="#000000"> &#160;Module</text>
<polygon fill="#80b1d3" stroke="transparent" points="1527,-10 1527,-30 1547,-30 1547,-10 1527,-10"/>
<text text-anchor="start" x="1550.7812" y="-15.4" font-family="sans-serif" font-size="14.00" fill="#000000"> &#160;Bootstrap</text>
<polygon fill="#fdb462" stroke="transparent" points="1624,-10 1624,-30 1644,-30 1644,-10 1624,-10"/>
<text text-anchor="start" x="1647.6732" y="-15.4" font-family="sans-serif" font-size="14.00" fill="#000000"> &#160;Providers</text>
<polygon fill="#fb8072" stroke="transparent" points="1720,-10 1720,-30 1740,-30 1740,-10 1720,-10"/>
<text text-anchor="start" x="1743.7258" y="-15.4" font-family="sans-serif" font-size="14.00" fill="#000000"> &#160;Exports</text>
<g id="clust1" class="cluster">
<title>cluster_ArrayTransformPipesModule</title>
<polygon fill="none" stroke="#000000" stroke-dasharray="1,5" points="8,-70 8,-268 206,-268 206,-70 8,-70"/>
</g>
<g id="clust2" class="cluster">
<title>cluster_ArrayTransformPipesModule_declarations</title>
<polygon fill="none" stroke="#000000" points="51,-78 51,-130 163,-130 163,-78 51,-78"/>
</g>
<g id="clust5" class="cluster">
<title>cluster_ArrayTransformPipesModule_exports</title>
<polygon fill="none" stroke="#000000" points="49,-208 49,-260 165,-260 165,-208 49,-208"/>
</g>
<g id="clust8" class="cluster">
<title>cluster_DatetimePipesModule</title>
<polygon fill="none" stroke="#000000" stroke-dasharray="1,5" points="214,-70 214,-268 490,-268 490,-70 214,-70"/>
</g>
<g id="clust9" class="cluster">
<title>cluster_DatetimePipesModule_declarations</title>
<polygon fill="none" stroke="#000000" points="226,-78 226,-130 478,-130 478,-78 226,-78"/>
</g>
<g id="clust13" class="cluster">
<title>cluster_DatetimePipesModule_exports</title>
<polygon fill="none" stroke="#000000" points="222,-208 222,-260 482,-260 482,-208 222,-208"/>
</g>
<g id="clust22" class="cluster">
<title>cluster_StringCheckPipesModule</title>
<polygon fill="none" stroke="#000000" stroke-dasharray="1,5" points="498,-70 498,-268 964,-268 964,-70 498,-70"/>
</g>
<g id="clust23" class="cluster">
<title>cluster_StringCheckPipesModule_declarations</title>
<polygon fill="none" stroke="#000000" points="511,-78 511,-130 952,-130 952,-78 511,-78"/>
</g>
<g id="clust28" class="cluster">
<title>cluster_StringCheckPipesModule_exports</title>
<polygon fill="none" stroke="#000000" points="506,-208 506,-260 956,-260 956,-208 506,-208"/>
</g>
<g id="clust31" class="cluster">
<title>cluster_StringTransformPipesModule</title>
<polygon fill="none" stroke="#000000" stroke-dasharray="1,5" points="972,-70 972,-268 1796,-268 1796,-70 972,-70"/>
</g>
<g id="clust32" class="cluster">
<title>cluster_StringTransformPipesModule_declarations</title>
<polygon fill="none" stroke="#000000" points="989,-78 989,-130 1780,-130 1780,-78 989,-78"/>
</g>
<g id="clust39" class="cluster">
<title>cluster_StringTransformPipesModule_exports</title>
<polygon fill="none" stroke="#000000" points="980,-208 980,-260 1788,-260 1788,-208 980,-208"/>
</g>
<g id="clust42" class="cluster">
<title>cluster_UnitsPipesModule</title>
<polygon fill="none" stroke="#000000" stroke-dasharray="1,5" points="1804,-70 1804,-268 1990,-268 1990,-70 1804,-70"/>
</g>
<g id="clust43" class="cluster">
<title>cluster_UnitsPipesModule_declarations</title>
<polygon fill="none" stroke="#000000" points="1814,-78 1814,-130 1980,-130 1980,-78 1814,-78"/>
</g>
<g id="clust46" class="cluster">
<title>cluster_UnitsPipesModule_exports</title>
<polygon fill="none" stroke="#000000" points="1812,-208 1812,-260 1982,-260 1982,-208 1812,-208"/>
</g>
<g id="clust49" class="cluster">
<title>cluster_UtilsPipesModule</title>
<polygon fill="none" stroke="#000000" stroke-dasharray="1,5" points="1998,-70 1998,-268 3116,-268 3116,-70 1998,-70"/>
</g>
<g id="clust50" class="cluster">
<title>cluster_UtilsPipesModule_declarations</title>
<polygon fill="none" stroke="#000000" points="2021,-78 2021,-130 3092,-130 3092,-78 2021,-78"/>
</g>
<g id="clust61" class="cluster">
<title>cluster_UtilsPipesModule_exports</title>
<polygon fill="none" stroke="#000000" points="2006,-208 2006,-260 3108,-260 3108,-208 2006,-208"/>
</g>
<!-- ArrayJoinPipe -->
<g id="node1" class="node">
<title>ArrayJoinPipe</title>
<polygon fill="#ffffb3" stroke="#000000" points="155.3655,-122 58.6345,-122 58.6345,-86 155.3655,-86 155.3655,-122"/>
<text text-anchor="middle" x="107" y="-99.8" font-family="Times,serif" font-size="14.00" fill="#000000">ArrayJoinPipe</text>
</g>
<!-- ArrayTransformPipesModule -->
<g id="node2" class="node">
<title>ArrayTransformPipesModule</title>
<polygon fill="#8dd3c7" stroke="#000000" points="197.6092,-187 194.6092,-191 173.6092,-191 170.6092,-187 16.3908,-187 16.3908,-151 197.6092,-151 197.6092,-187"/>
<text text-anchor="middle" x="107" y="-164.8" font-family="Times,serif" font-size="14.00" fill="#000000">ArrayTransformPipesModule</text>
</g>
<!-- ArrayJoinPipe&#45;&gt;ArrayTransformPipesModule -->
<g id="edge1" class="edge">
<title>ArrayJoinPipe&#45;&gt;ArrayTransformPipesModule</title>
<path fill="none" stroke="#000000" d="M107,-122.1061C107,-122.1061 107,-140.991 107,-140.991"/>
<polygon fill="#000000" stroke="#000000" points="103.5001,-140.9909 107,-150.991 110.5001,-140.991 103.5001,-140.9909"/>
</g>
<!-- ArrayJoinPipe  -->
<g id="node3" class="node">
<title>ArrayJoinPipe </title>
<polygon fill="#fb8072" stroke="#000000" points="157.3661,-252 56.6339,-252 56.6339,-216 157.3661,-216 157.3661,-252"/>
<text text-anchor="middle" x="107" y="-229.8" font-family="Times,serif" font-size="14.00" fill="#000000">ArrayJoinPipe </text>
</g>
<!-- ArrayTransformPipesModule&#45;&gt;ArrayJoinPipe  -->
<g id="edge2" class="edge">
<title>ArrayTransformPipesModule&#45;&gt;ArrayJoinPipe </title>
<path fill="none" stroke="#000000" stroke-dasharray="5,2" d="M107,-187.1061C107,-187.1061 107,-205.991 107,-205.991"/>
<polygon fill="#000000" stroke="#000000" points="103.5001,-205.9909 107,-215.991 110.5001,-205.991 103.5001,-205.9909"/>
</g>
<!-- ElapsedTimePipe -->
<g id="node4" class="node">
<title>ElapsedTimePipe</title>
<polygon fill="#ffffb3" stroke="#000000" points="470.2535,-122 355.7465,-122 355.7465,-86 470.2535,-86 470.2535,-122"/>
<text text-anchor="middle" x="413" y="-99.8" font-family="Times,serif" font-size="14.00" fill="#000000">ElapsedTimePipe</text>
</g>
<!-- DatetimePipesModule -->
<g id="node6" class="node">
<title>DatetimePipesModule</title>
<polygon fill="#8dd3c7" stroke="#000000" points="421.6951,-187 418.6951,-191 397.6951,-191 394.6951,-187 280.3049,-187 280.3049,-151 421.6951,-151 421.6951,-187"/>
<text text-anchor="middle" x="351" y="-164.8" font-family="Times,serif" font-size="14.00" fill="#000000">DatetimePipesModule</text>
</g>
<!-- ElapsedTimePipe&#45;&gt;DatetimePipesModule -->
<g id="edge3" class="edge">
<title>ElapsedTimePipe&#45;&gt;DatetimePipesModule</title>
<path fill="none" stroke="#000000" d="M388.6105,-122.1061C388.6105,-122.1061 388.6105,-140.991 388.6105,-140.991"/>
<polygon fill="#000000" stroke="#000000" points="385.1105,-140.9909 388.6105,-150.991 392.1105,-140.991 385.1105,-140.9909"/>
</g>
<!-- TimestampPipe -->
<g id="node5" class="node">
<title>TimestampPipe</title>
<polygon fill="#ffffb3" stroke="#000000" points="337.8767,-122 234.1233,-122 234.1233,-86 337.8767,-86 337.8767,-122"/>
<text text-anchor="middle" x="286" y="-99.8" font-family="Times,serif" font-size="14.00" fill="#000000">TimestampPipe</text>
</g>
<!-- TimestampPipe&#45;&gt;DatetimePipesModule -->
<g id="edge4" class="edge">
<title>TimestampPipe&#45;&gt;DatetimePipesModule</title>
<path fill="none" stroke="#000000" d="M309.1704,-122.1061C309.1704,-122.1061 309.1704,-140.991 309.1704,-140.991"/>
<polygon fill="#000000" stroke="#000000" points="305.6705,-140.9909 309.1704,-150.991 312.6705,-140.991 305.6705,-140.9909"/>
</g>
<!-- ElapsedTimePipe  -->
<g id="node7" class="node">
<title>ElapsedTimePipe </title>
<polygon fill="#fb8072" stroke="#000000" points="474.2535,-252 355.7465,-252 355.7465,-216 474.2535,-216 474.2535,-252"/>
<text text-anchor="middle" x="415" y="-229.8" font-family="Times,serif" font-size="14.00" fill="#000000">ElapsedTimePipe </text>
</g>
<!-- DatetimePipesModule&#45;&gt;ElapsedTimePipe  -->
<g id="edge5" class="edge">
<title>DatetimePipesModule&#45;&gt;ElapsedTimePipe </title>
<path fill="none" stroke="#000000" stroke-dasharray="5,2" d="M388.7355,-187.1061C388.7355,-187.1061 388.7355,-205.991 388.7355,-205.991"/>
<polygon fill="#000000" stroke="#000000" points="385.2355,-205.9909 388.7355,-215.991 392.2355,-205.991 385.2355,-205.9909"/>
</g>
<!-- TimestampPipe  -->
<g id="node8" class="node">
<title>TimestampPipe </title>
<polygon fill="#fb8072" stroke="#000000" points="337.8773,-252 230.1227,-252 230.1227,-216 337.8773,-216 337.8773,-252"/>
<text text-anchor="middle" x="284" y="-229.8" font-family="Times,serif" font-size="14.00" fill="#000000">TimestampPipe </text>
</g>
<!-- DatetimePipesModule&#45;&gt;TimestampPipe  -->
<g id="edge6" class="edge">
<title>DatetimePipesModule&#45;&gt;TimestampPipe </title>
<path fill="none" stroke="#000000" stroke-dasharray="5,2" d="M309.0454,-187.1061C309.0454,-187.1061 309.0454,-205.991 309.0454,-205.991"/>
<polygon fill="#000000" stroke="#000000" points="305.5455,-205.9909 309.0454,-215.991 312.5455,-205.991 305.5455,-205.9909"/>
</g>
<!-- StringEndsWithPipe -->
<g id="node9" class="node">
<title>StringEndsWithPipe</title>
<polygon fill="#ffffb3" stroke="#000000" points="943.6052,-122 812.3948,-122 812.3948,-86 943.6052,-86 943.6052,-122"/>
<text text-anchor="middle" x="878" y="-99.8" font-family="Times,serif" font-size="14.00" fill="#000000">StringEndsWithPipe</text>
</g>
<!-- StringCheckPipesModule -->
<g id="node12" class="node">
<title>StringCheckPipesModule</title>
<polygon fill="#8dd3c7" stroke="#000000" points="812.8725,-187 809.8725,-191 788.8725,-191 785.8725,-187 653.1275,-187 653.1275,-151 812.8725,-151 812.8725,-187"/>
<text text-anchor="middle" x="733" y="-164.8" font-family="Times,serif" font-size="14.00" fill="#000000">StringCheckPipesModule</text>
</g>
<!-- StringEndsWithPipe&#45;&gt;StringCheckPipesModule -->
<g id="edge7" class="edge">
<title>StringEndsWithPipe&#45;&gt;StringCheckPipesModule</title>
<path fill="none" stroke="#000000" d="M812.2135,-104C806.8033,-104 803.358,-104 803.358,-104 803.358,-104 803.358,-140.8939 803.358,-140.8939"/>
<polygon fill="#000000" stroke="#000000" points="799.8581,-140.8938 803.358,-150.8939 806.8581,-140.8939 799.8581,-140.8938"/>
</g>
<!-- StringIncludesPipe -->
<g id="node10" class="node">
<title>StringIncludesPipe</title>
<polygon fill="#ffffb3" stroke="#000000" points="794.0381,-122 671.9619,-122 671.9619,-86 794.0381,-86 794.0381,-122"/>
<text text-anchor="middle" x="733" y="-99.8" font-family="Times,serif" font-size="14.00" fill="#000000">StringIncludesPipe</text>
</g>
<!-- StringIncludesPipe&#45;&gt;StringCheckPipesModule -->
<g id="edge8" class="edge">
<title>StringIncludesPipe&#45;&gt;StringCheckPipesModule</title>
<path fill="none" stroke="#000000" d="M733,-122.1061C733,-122.1061 733,-140.991 733,-140.991"/>
<polygon fill="#000000" stroke="#000000" points="729.5001,-140.9909 733,-150.991 736.5001,-140.991 729.5001,-140.9909"/>
</g>
<!-- StringStartsWithPipe -->
<g id="node11" class="node">
<title>StringStartsWithPipe</title>
<polygon fill="#ffffb3" stroke="#000000" points="653.4916,-122 518.5084,-122 518.5084,-86 653.4916,-86 653.4916,-122"/>
<text text-anchor="middle" x="586" y="-99.8" font-family="Times,serif" font-size="14.00" fill="#000000">StringStartsWithPipe</text>
</g>
<!-- StringStartsWithPipe&#45;&gt;StringCheckPipesModule -->
<g id="edge9" class="edge">
<title>StringStartsWithPipe&#45;&gt;StringCheckPipesModule</title>
<path fill="none" stroke="#000000" d="M653.5242,-104C659.0773,-104 662.6136,-104 662.6136,-104 662.6136,-104 662.6136,-140.8939 662.6136,-140.8939"/>
<polygon fill="#000000" stroke="#000000" points="659.1137,-140.8938 662.6136,-150.8939 666.1137,-140.8939 659.1137,-140.8938"/>
</g>
<!-- StringEndsWithPipe  -->
<g id="node13" class="node">
<title>StringEndsWithPipe </title>
<polygon fill="#fb8072" stroke="#000000" points="948.1058,-252 813.8942,-252 813.8942,-216 948.1058,-216 948.1058,-252"/>
<text text-anchor="middle" x="881" y="-229.8" font-family="Times,serif" font-size="14.00" fill="#000000">StringEndsWithPipe </text>
</g>
<!-- StringCheckPipesModule&#45;&gt;StringEndsWithPipe  -->
<g id="edge10" class="edge">
<title>StringCheckPipesModule&#45;&gt;StringEndsWithPipe </title>
<path fill="none" stroke="#000000" stroke-dasharray="5,2" d="M804.4774,-187.1061C804.4774,-206.3391 804.4774,-234 804.4774,-234 804.4774,-234 805.4157,-234 805.4157,-234"/>
<polygon fill="#000000" stroke="#000000" points="803.8606,-237.5001 813.8606,-234 803.8605,-230.5001 803.8606,-237.5001"/>
</g>
<!-- StringIncludesPipe  -->
<g id="node14" class="node">
<title>StringIncludesPipe </title>
<polygon fill="#fb8072" stroke="#000000" points="796.0372,-252 669.9628,-252 669.9628,-216 796.0372,-216 796.0372,-252"/>
<text text-anchor="middle" x="733" y="-229.8" font-family="Times,serif" font-size="14.00" fill="#000000">StringIncludesPipe </text>
</g>
<!-- StringCheckPipesModule&#45;&gt;StringIncludesPipe  -->
<g id="edge11" class="edge">
<title>StringCheckPipesModule&#45;&gt;StringIncludesPipe </title>
<path fill="none" stroke="#000000" stroke-dasharray="5,2" d="M733,-187.1061C733,-187.1061 733,-205.991 733,-205.991"/>
<polygon fill="#000000" stroke="#000000" points="729.5001,-205.9909 733,-215.991 736.5001,-205.991 729.5001,-205.9909"/>
</g>
<!-- StringStartsWithPipe  -->
<g id="node15" class="node">
<title>StringStartsWithPipe </title>
<polygon fill="#fb8072" stroke="#000000" points="652.4925,-252 513.5075,-252 513.5075,-216 652.4925,-216 652.4925,-252"/>
<text text-anchor="middle" x="583" y="-229.8" font-family="Times,serif" font-size="14.00" fill="#000000">StringStartsWithPipe </text>
</g>
<!-- StringCheckPipesModule&#45;&gt;StringStartsWithPipe  -->
<g id="edge12" class="edge">
<title>StringCheckPipesModule&#45;&gt;StringStartsWithPipe </title>
<path fill="none" stroke="#000000" stroke-dasharray="5,2" d="M661.5226,-187.1061C661.5226,-206.3391 661.5226,-234 661.5226,-234 661.5226,-234 660.6218,-234 660.6218,-234"/>
<polygon fill="#000000" stroke="#000000" points="662.5151,-230.5001 652.5151,-234 662.515,-237.5001 662.5151,-230.5001"/>
</g>
<!-- StringFormatUnicornPipe -->
<g id="node16" class="node">
<title>StringFormatUnicornPipe</title>
<polygon fill="#ffffb3" stroke="#000000" points="1771.9242,-122 1610.0758,-122 1610.0758,-86 1771.9242,-86 1771.9242,-122"/>
<text text-anchor="middle" x="1691" y="-99.8" font-family="Times,serif" font-size="14.00" fill="#000000">StringFormatUnicornPipe</text>
</g>
<!-- StringTransformPipesModule -->
<g id="node21" class="node">
<title>StringTransformPipesModule</title>
<polygon fill="#8dd3c7" stroke="#000000" points="1468.6909,-187 1465.6909,-191 1444.6909,-191 1441.6909,-187 1285.3091,-187 1285.3091,-151 1468.6909,-151 1468.6909,-187"/>
<text text-anchor="middle" x="1377" y="-164.8" font-family="Times,serif" font-size="14.00" fill="#000000">StringTransformPipesModule</text>
</g>
<!-- StringFormatUnicornPipe&#45;&gt;StringTransformPipesModule -->
<g id="edge13" class="edge">
<title>StringFormatUnicornPipe&#45;&gt;StringTransformPipesModule</title>
<path fill="none" stroke="#000000" d="M1719.6539,-122.2667C1719.6539,-140.5552 1719.6539,-166 1719.6539,-166 1719.6539,-166 1478.825,-166 1478.825,-166"/>
<polygon fill="#000000" stroke="#000000" points="1478.825,-162.5001 1468.825,-166 1478.8249,-169.5001 1478.825,-162.5001"/>
</g>
<!-- StringNl2brPipe -->
<g id="node17" class="node">
<title>StringNl2brPipe</title>
<polygon fill="#ffffb3" stroke="#000000" points="1591.7702,-122 1484.2298,-122 1484.2298,-86 1591.7702,-86 1591.7702,-122"/>
<text text-anchor="middle" x="1538" y="-99.8" font-family="Times,serif" font-size="14.00" fill="#000000">StringNl2brPipe</text>
</g>
<!-- StringNl2brPipe&#45;&gt;StringTransformPipesModule -->
<g id="edge14" class="edge">
<title>StringNl2brPipe&#45;&gt;StringTransformPipesModule</title>
<path fill="none" stroke="#000000" d="M1556.7117,-122.0091C1556.7117,-138.0494 1556.7117,-159 1556.7117,-159 1556.7117,-159 1478.6985,-159 1478.6985,-159"/>
<polygon fill="#000000" stroke="#000000" points="1478.6985,-155.5001 1468.6985,-159 1478.6984,-162.5001 1478.6985,-155.5001"/>
</g>
<!-- StringTruncateByWordsPipe -->
<g id="node18" class="node">
<title>StringTruncateByWordsPipe</title>
<polygon fill="#ffffb3" stroke="#000000" points="1466.0169,-122 1287.9831,-122 1287.9831,-86 1466.0169,-86 1466.0169,-122"/>
<text text-anchor="middle" x="1377" y="-99.8" font-family="Times,serif" font-size="14.00" fill="#000000">StringTruncateByWordsPipe</text>
</g>
<!-- StringTruncateByWordsPipe&#45;&gt;StringTransformPipesModule -->
<g id="edge15" class="edge">
<title>StringTruncateByWordsPipe&#45;&gt;StringTransformPipesModule</title>
<path fill="none" stroke="#000000" d="M1377,-122.1061C1377,-122.1061 1377,-140.991 1377,-140.991"/>
<polygon fill="#000000" stroke="#000000" points="1373.5001,-140.9909 1377,-150.991 1380.5001,-140.991 1373.5001,-140.9909"/>
</g>
<!-- StringTruncatePipe -->
<g id="node19" class="node">
<title>StringTruncatePipe</title>
<polygon fill="#ffffb3" stroke="#000000" points="1269.3599,-122 1144.6401,-122 1144.6401,-86 1269.3599,-86 1269.3599,-122"/>
<text text-anchor="middle" x="1207" y="-99.8" font-family="Times,serif" font-size="14.00" fill="#000000">StringTruncatePipe</text>
</g>
<!-- StringTruncatePipe&#45;&gt;StringTransformPipesModule -->
<g id="edge16" class="edge">
<title>StringTruncatePipe&#45;&gt;StringTransformPipesModule</title>
<path fill="none" stroke="#000000" d="M1226.9766,-122.0091C1226.9766,-138.0494 1226.9766,-159 1226.9766,-159 1226.9766,-159 1274.9796,-159 1274.9796,-159"/>
<polygon fill="#000000" stroke="#000000" points="1274.9796,-162.5001 1284.9796,-159 1274.9795,-155.5001 1274.9796,-162.5001"/>
</g>
<!-- StringUnescapePipe -->
<g id="node20" class="node">
<title>StringUnescapePipe</title>
<polygon fill="#ffffb3" stroke="#000000" points="1126.5227,-122 997.4773,-122 997.4773,-86 1126.5227,-86 1126.5227,-122"/>
<text text-anchor="middle" x="1062" y="-99.8" font-family="Times,serif" font-size="14.00" fill="#000000">StringUnescapePipe</text>
</g>
<!-- StringUnescapePipe&#45;&gt;StringTransformPipesModule -->
<g id="edge17" class="edge">
<title>StringUnescapePipe&#45;&gt;StringTransformPipesModule</title>
<path fill="none" stroke="#000000" d="M1080.087,-122.2667C1080.087,-140.5552 1080.087,-166 1080.087,-166 1080.087,-166 1275.0882,-166 1275.0882,-166"/>
<polygon fill="#000000" stroke="#000000" points="1275.0883,-169.5001 1285.0882,-166 1275.0882,-162.5001 1275.0883,-169.5001"/>
</g>
<!-- StringFormatUnicornPipe  -->
<g id="node22" class="node">
<title>StringFormatUnicornPipe </title>
<polygon fill="#fb8072" stroke="#000000" points="1780.4236,-252 1615.5764,-252 1615.5764,-216 1780.4236,-216 1780.4236,-252"/>
<text text-anchor="middle" x="1698" y="-229.8" font-family="Times,serif" font-size="14.00" fill="#000000">StringFormatUnicornPipe </text>
</g>
<!-- StringTransformPipesModule&#45;&gt;StringFormatUnicornPipe  -->
<g id="edge18" class="edge">
<title>StringTransformPipesModule&#45;&gt;StringFormatUnicornPipe </title>
<path fill="none" stroke="#000000" stroke-dasharray="5,2" d="M1468.9464,-173C1554.082,-173 1667.5961,-173 1667.5961,-173 1667.5961,-173 1667.5961,-205.698 1667.5961,-205.698"/>
<polygon fill="#000000" stroke="#000000" points="1664.0962,-205.698 1667.5961,-215.698 1671.0962,-205.698 1664.0962,-205.698"/>
</g>
<!-- StringNl2brPipe  -->
<g id="node23" class="node">
<title>StringNl2brPipe </title>
<polygon fill="#fb8072" stroke="#000000" points="1597.7703,-252 1486.2297,-252 1486.2297,-216 1597.7703,-216 1597.7703,-252"/>
<text text-anchor="middle" x="1542" y="-229.8" font-family="Times,serif" font-size="14.00" fill="#000000">StringNl2brPipe </text>
</g>
<!-- StringTransformPipesModule&#45;&gt;StringNl2brPipe  -->
<g id="edge19" class="edge">
<title>StringTransformPipesModule&#45;&gt;StringNl2brPipe </title>
<path fill="none" stroke="#000000" stroke-dasharray="5,2" d="M1468.9478,-180C1497.4539,-180 1521.5383,-180 1521.5383,-180 1521.5383,-180 1521.5383,-205.7181 1521.5383,-205.7181"/>
<polygon fill="#000000" stroke="#000000" points="1518.0384,-205.718 1521.5383,-215.7181 1525.0384,-205.7181 1518.0384,-205.718"/>
</g>
<!-- StringTruncateByWordsPipe  -->
<g id="node24" class="node">
<title>StringTruncateByWordsPipe </title>
<polygon fill="#fb8072" stroke="#000000" points="1468.0162,-252 1285.9838,-252 1285.9838,-216 1468.0162,-216 1468.0162,-252"/>
<text text-anchor="middle" x="1377" y="-229.8" font-family="Times,serif" font-size="14.00" fill="#000000">StringTruncateByWordsPipe </text>
</g>
<!-- StringTransformPipesModule&#45;&gt;StringTruncateByWordsPipe  -->
<g id="edge20" class="edge">
<title>StringTransformPipesModule&#45;&gt;StringTruncateByWordsPipe </title>
<path fill="none" stroke="#000000" stroke-dasharray="5,2" d="M1377,-187.1061C1377,-187.1061 1377,-205.991 1377,-205.991"/>
<polygon fill="#000000" stroke="#000000" points="1373.5001,-205.9909 1377,-215.991 1380.5001,-205.991 1373.5001,-205.9909"/>
</g>
<!-- StringTruncatePipe  -->
<g id="node25" class="node">
<title>StringTruncatePipe </title>
<polygon fill="#fb8072" stroke="#000000" points="1268.3603,-252 1139.6397,-252 1139.6397,-216 1268.3603,-216 1268.3603,-252"/>
<text text-anchor="middle" x="1204" y="-229.8" font-family="Times,serif" font-size="14.00" fill="#000000">StringTruncatePipe </text>
</g>
<!-- StringTransformPipesModule&#45;&gt;StringTruncatePipe  -->
<g id="edge21" class="edge">
<title>StringTransformPipesModule&#45;&gt;StringTruncatePipe </title>
<path fill="none" stroke="#000000" stroke-dasharray="5,2" d="M1285.3073,-180C1236.2302,-180 1185.7734,-180 1185.7734,-180 1185.7734,-180 1185.7734,-205.7181 1185.7734,-205.7181"/>
<polygon fill="#000000" stroke="#000000" points="1182.2735,-205.718 1185.7734,-215.7181 1189.2735,-205.7181 1182.2735,-205.718"/>
</g>
<!-- StringUnescapePipe  -->
<g id="node26" class="node">
<title>StringUnescapePipe </title>
<polygon fill="#fb8072" stroke="#000000" points="1121.5218,-252 988.4782,-252 988.4782,-216 1121.5218,-216 1121.5218,-252"/>
<text text-anchor="middle" x="1055" y="-229.8" font-family="Times,serif" font-size="14.00" fill="#000000">StringUnescapePipe </text>
</g>
<!-- StringTransformPipesModule&#45;&gt;StringUnescapePipe  -->
<g id="edge22" class="edge">
<title>StringTransformPipesModule&#45;&gt;StringUnescapePipe </title>
<path fill="none" stroke="#000000" stroke-dasharray="5,2" d="M1284.9948,-173C1184.8066,-173 1038.663,-173 1038.663,-173 1038.663,-173 1038.663,-205.698 1038.663,-205.698"/>
<polygon fill="#000000" stroke="#000000" points="1035.1631,-205.698 1038.663,-215.698 1042.1631,-205.698 1035.1631,-205.698"/>
</g>
<!-- BytesToMegabytesPipe -->
<g id="node27" class="node">
<title>BytesToMegabytesPipe</title>
<polygon fill="#ffffb3" stroke="#000000" points="1971.7506,-122 1822.2494,-122 1822.2494,-86 1971.7506,-86 1971.7506,-122"/>
<text text-anchor="middle" x="1897" y="-99.8" font-family="Times,serif" font-size="14.00" fill="#000000">BytesToMegabytesPipe</text>
</g>
<!-- UnitsPipesModule -->
<g id="node28" class="node">
<title>UnitsPipesModule</title>
<polygon fill="#8dd3c7" stroke="#000000" points="1957.2148,-187 1954.2148,-191 1933.2148,-191 1930.2148,-187 1836.7852,-187 1836.7852,-151 1957.2148,-151 1957.2148,-187"/>
<text text-anchor="middle" x="1897" y="-164.8" font-family="Times,serif" font-size="14.00" fill="#000000">UnitsPipesModule</text>
</g>
<!-- BytesToMegabytesPipe&#45;&gt;UnitsPipesModule -->
<g id="edge23" class="edge">
<title>BytesToMegabytesPipe&#45;&gt;UnitsPipesModule</title>
<path fill="none" stroke="#000000" d="M1897,-122.1061C1897,-122.1061 1897,-140.991 1897,-140.991"/>
<polygon fill="#000000" stroke="#000000" points="1893.5001,-140.9909 1897,-150.991 1900.5001,-140.991 1893.5001,-140.9909"/>
</g>
<!-- BytesToMegabytesPipe  -->
<g id="node29" class="node">
<title>BytesToMegabytesPipe </title>
<polygon fill="#fb8072" stroke="#000000" points="1973.7506,-252 1820.2494,-252 1820.2494,-216 1973.7506,-216 1973.7506,-252"/>
<text text-anchor="middle" x="1897" y="-229.8" font-family="Times,serif" font-size="14.00" fill="#000000">BytesToMegabytesPipe </text>
</g>
<!-- UnitsPipesModule&#45;&gt;BytesToMegabytesPipe  -->
<g id="edge24" class="edge">
<title>UnitsPipesModule&#45;&gt;BytesToMegabytesPipe </title>
<path fill="none" stroke="#000000" stroke-dasharray="5,2" d="M1897,-187.1061C1897,-187.1061 1897,-205.991 1897,-205.991"/>
<polygon fill="#000000" stroke="#000000" points="1893.5001,-205.9909 1897,-215.991 1900.5001,-205.991 1893.5001,-205.9909"/>
</g>
<!-- DefaultValuePipe -->
<g id="node30" class="node">
<title>DefaultValuePipe</title>
<polygon fill="#ffffb3" stroke="#000000" points="3084.2922,-122 2967.7078,-122 2967.7078,-86 3084.2922,-86 3084.2922,-122"/>
<text text-anchor="middle" x="3026" y="-99.8" font-family="Times,serif" font-size="14.00" fill="#000000">DefaultValuePipe</text>
</g>
<!-- UtilsPipesModule -->
<g id="node39" class="node">
<title>UtilsPipesModule</title>
<polygon fill="#8dd3c7" stroke="#000000" points="2594.6052,-187 2591.6052,-191 2570.6052,-191 2567.6052,-187 2477.3948,-187 2477.3948,-151 2594.6052,-151 2594.6052,-187"/>
<text text-anchor="middle" x="2536" y="-164.8" font-family="Times,serif" font-size="14.00" fill="#000000">UtilsPipesModule</text>
</g>
<!-- DefaultValuePipe&#45;&gt;UtilsPipesModule -->
<g id="edge25" class="edge">
<title>DefaultValuePipe&#45;&gt;UtilsPipesModule</title>
<path fill="none" stroke="#000000" d="M2973.9791,-122.2222C2973.9791,-140.8285 2973.9791,-167 2973.9791,-167 2973.9791,-167 2604.6133,-167 2604.6133,-167"/>
<polygon fill="#000000" stroke="#000000" points="2604.6134,-163.5001 2594.6133,-167 2604.6133,-170.5001 2604.6134,-163.5001"/>
</g>
<!-- IsEmptyPipe -->
<g id="node31" class="node">
<title>IsEmptyPipe</title>
<polygon fill="#ffffb3" stroke="#000000" points="2950.3274,-122 2861.6726,-122 2861.6726,-86 2950.3274,-86 2950.3274,-122"/>
<text text-anchor="middle" x="2906" y="-99.8" font-family="Times,serif" font-size="14.00" fill="#000000">IsEmptyPipe</text>
</g>
<!-- IsEmptyPipe&#45;&gt;UtilsPipesModule -->
<g id="edge26" class="edge">
<title>IsEmptyPipe&#45;&gt;UtilsPipesModule</title>
<path fill="none" stroke="#000000" d="M2865.9616,-122.0225C2865.9616,-139.3734 2865.9616,-163 2865.9616,-163 2865.9616,-163 2604.6103,-163 2604.6103,-163"/>
<polygon fill="#000000" stroke="#000000" points="2604.6103,-159.5001 2594.6103,-163 2604.6103,-166.5001 2604.6103,-159.5001"/>
</g>
<!-- IsNotEmptyPipe -->
<g id="node32" class="node">
<title>IsNotEmptyPipe</title>
<polygon fill="#ffffb3" stroke="#000000" points="2843.8245,-122 2734.1755,-122 2734.1755,-86 2843.8245,-86 2843.8245,-122"/>
<text text-anchor="middle" x="2789" y="-99.8" font-family="Times,serif" font-size="14.00" fill="#000000">IsNotEmptyPipe</text>
</g>
<!-- IsNotEmptyPipe&#45;&gt;UtilsPipesModule -->
<g id="edge27" class="edge">
<title>IsNotEmptyPipe&#45;&gt;UtilsPipesModule</title>
<path fill="none" stroke="#000000" d="M2808.9707,-122.0091C2808.9707,-138.0494 2808.9707,-159 2808.9707,-159 2808.9707,-159 2604.5591,-159 2604.5591,-159"/>
<polygon fill="#000000" stroke="#000000" points="2604.5591,-155.5001 2594.5591,-159 2604.559,-162.5001 2604.5591,-155.5001"/>
</g>
<!-- IsNotNullPipe -->
<g id="node33" class="node">
<title>IsNotNullPipe</title>
<polygon fill="#ffffb3" stroke="#000000" points="2716.3781,-122 2619.6219,-122 2619.6219,-86 2716.3781,-86 2716.3781,-122"/>
<text text-anchor="middle" x="2668" y="-99.8" font-family="Times,serif" font-size="14.00" fill="#000000">IsNotNullPipe</text>
</g>
<!-- IsNotNullPipe&#45;&gt;UtilsPipesModule -->
<g id="edge28" class="edge">
<title>IsNotNullPipe&#45;&gt;UtilsPipesModule</title>
<path fill="none" stroke="#000000" d="M2684.563,-122.1243C2684.563,-136.7832 2684.563,-155 2684.563,-155 2684.563,-155 2604.716,-155 2604.716,-155"/>
<polygon fill="#000000" stroke="#000000" points="2604.7161,-151.5001 2594.716,-155 2604.716,-158.5001 2604.7161,-151.5001"/>
</g>
<!-- IsNotUndefinedPipe -->
<g id="node34" class="node">
<title>IsNotUndefinedPipe</title>
<polygon fill="#ffffb3" stroke="#000000" points="2601.5772,-122 2470.4228,-122 2470.4228,-86 2601.5772,-86 2601.5772,-122"/>
<text text-anchor="middle" x="2536" y="-99.8" font-family="Times,serif" font-size="14.00" fill="#000000">IsNotUndefinedPipe</text>
</g>
<!-- IsNotUndefinedPipe&#45;&gt;UtilsPipesModule -->
<g id="edge29" class="edge">
<title>IsNotUndefinedPipe&#45;&gt;UtilsPipesModule</title>
<path fill="none" stroke="#000000" d="M2536,-122.1061C2536,-122.1061 2536,-140.991 2536,-140.991"/>
<polygon fill="#000000" stroke="#000000" points="2532.5001,-140.9909 2536,-150.991 2539.5001,-140.991 2532.5001,-140.9909"/>
</g>
<!-- IsNullPipe -->
<g id="node35" class="node">
<title>IsNullPipe</title>
<polygon fill="#ffffb3" stroke="#000000" points="2452.8809,-122 2377.1191,-122 2377.1191,-86 2452.8809,-86 2452.8809,-122"/>
<text text-anchor="middle" x="2415" y="-99.8" font-family="Times,serif" font-size="14.00" fill="#000000">IsNullPipe</text>
</g>
<!-- IsNullPipe&#45;&gt;UtilsPipesModule -->
<g id="edge30" class="edge">
<title>IsNullPipe&#45;&gt;UtilsPipesModule</title>
<path fill="none" stroke="#000000" d="M2426.1468,-122.1243C2426.1468,-136.7832 2426.1468,-155 2426.1468,-155 2426.1468,-155 2467.2142,-155 2467.2142,-155"/>
<polygon fill="#000000" stroke="#000000" points="2467.2142,-158.5001 2477.2142,-155 2467.2142,-151.5001 2467.2142,-158.5001"/>
</g>
<!-- IsUndefinedPipe -->
<g id="node36" class="node">
<title>IsUndefinedPipe</title>
<polygon fill="#ffffb3" stroke="#000000" points="2359.08,-122 2248.92,-122 2248.92,-86 2359.08,-86 2359.08,-122"/>
<text text-anchor="middle" x="2304" y="-99.8" font-family="Times,serif" font-size="14.00" fill="#000000">IsUndefinedPipe</text>
</g>
<!-- IsUndefinedPipe&#45;&gt;UtilsPipesModule -->
<g id="edge31" class="edge">
<title>IsUndefinedPipe&#45;&gt;UtilsPipesModule</title>
<path fill="none" stroke="#000000" d="M2318.8467,-122.0091C2318.8467,-138.0494 2318.8467,-159 2318.8467,-159 2318.8467,-159 2467.2352,-159 2467.2352,-159"/>
<polygon fill="#000000" stroke="#000000" points="2467.2352,-162.5001 2477.2352,-159 2467.2351,-155.5001 2467.2352,-162.5001"/>
</g>
<!-- ProgressPipe -->
<g id="node37" class="node">
<title>ProgressPipe</title>
<polygon fill="#ffffb3" stroke="#000000" points="2230.5955,-122 2141.4045,-122 2141.4045,-86 2230.5955,-86 2230.5955,-122"/>
<text text-anchor="middle" x="2186" y="-99.8" font-family="Times,serif" font-size="14.00" fill="#000000">ProgressPipe</text>
</g>
<!-- ProgressPipe&#45;&gt;UtilsPipesModule -->
<g id="edge32" class="edge">
<title>ProgressPipe&#45;&gt;UtilsPipesModule</title>
<path fill="none" stroke="#000000" d="M2226.4227,-122.0225C2226.4227,-139.3734 2226.4227,-163 2226.4227,-163 2226.4227,-163 2467.4069,-163 2467.4069,-163"/>
<polygon fill="#000000" stroke="#000000" points="2467.407,-166.5001 2477.4069,-163 2467.4069,-159.5001 2467.407,-166.5001"/>
</g>
<!-- SafeHtmlPipe -->
<g id="node38" class="node">
<title>SafeHtmlPipe</title>
<polygon fill="#ffffb3" stroke="#000000" points="2123.0397,-122 2028.9603,-122 2028.9603,-86 2123.0397,-86 2123.0397,-122"/>
<text text-anchor="middle" x="2076" y="-99.8" font-family="Times,serif" font-size="14.00" fill="#000000">SafeHtmlPipe</text>
</g>
<!-- SafeHtmlPipe&#45;&gt;UtilsPipesModule -->
<g id="edge33" class="edge">
<title>SafeHtmlPipe&#45;&gt;UtilsPipesModule</title>
<path fill="none" stroke="#000000" d="M2117.6443,-122.2222C2117.6443,-140.8285 2117.6443,-167 2117.6443,-167 2117.6443,-167 2467.3889,-167 2467.3889,-167"/>
<polygon fill="#000000" stroke="#000000" points="2467.389,-170.5001 2477.3889,-167 2467.3889,-163.5001 2467.389,-170.5001"/>
</g>
<!-- DefaultValuePipe  -->
<g id="node40" class="node">
<title>DefaultValuePipe </title>
<polygon fill="#fb8072" stroke="#000000" points="3099.792,-252 2980.208,-252 2980.208,-216 3099.792,-216 3099.792,-252"/>
<text text-anchor="middle" x="3040" y="-229.8" font-family="Times,serif" font-size="14.00" fill="#000000">DefaultValuePipe </text>
</g>
<!-- UtilsPipesModule&#45;&gt;DefaultValuePipe  -->
<g id="edge34" class="edge">
<title>UtilsPipesModule&#45;&gt;DefaultValuePipe </title>
<path fill="none" stroke="#000000" stroke-dasharray="5,2" d="M2594.8603,-171C2726.2787,-171 3032.125,-171 3032.125,-171 3032.125,-171 3032.125,-205.7778 3032.125,-205.7778"/>
<polygon fill="#000000" stroke="#000000" points="3028.6251,-205.7778 3032.125,-215.7778 3035.6251,-205.7778 3028.6251,-205.7778"/>
</g>
<!-- IsEmptyPipe  -->
<g id="node41" class="node">
<title>IsEmptyPipe </title>
<polygon fill="#fb8072" stroke="#000000" points="2961.827,-252 2870.173,-252 2870.173,-216 2961.827,-216 2961.827,-252"/>
<text text-anchor="middle" x="2916" y="-229.8" font-family="Times,serif" font-size="14.00" fill="#000000">IsEmptyPipe </text>
</g>
<!-- UtilsPipesModule&#45;&gt;IsEmptyPipe  -->
<g id="edge35" class="edge">
<title>UtilsPipesModule&#45;&gt;IsEmptyPipe </title>
<path fill="none" stroke="#000000" stroke-dasharray="5,2" d="M2594.8686,-175C2700.2274,-175 2910.125,-175 2910.125,-175 2910.125,-175 2910.125,-205.9775 2910.125,-205.9775"/>
<polygon fill="#000000" stroke="#000000" points="2906.6251,-205.9774 2910.125,-215.9775 2913.6251,-205.9775 2906.6251,-205.9774"/>
</g>
<!-- IsNotEmptyPipe  -->
<g id="node42" class="node">
<title>IsNotEmptyPipe </title>
<polygon fill="#fb8072" stroke="#000000" points="2852.3241,-252 2739.6759,-252 2739.6759,-216 2852.3241,-216 2852.3241,-252"/>
<text text-anchor="middle" x="2796" y="-229.8" font-family="Times,serif" font-size="14.00" fill="#000000">IsNotEmptyPipe </text>
</g>
<!-- UtilsPipesModule&#45;&gt;IsNotEmptyPipe  -->
<g id="edge36" class="edge">
<title>UtilsPipesModule&#45;&gt;IsNotEmptyPipe </title>
<path fill="none" stroke="#000000" stroke-dasharray="5,2" d="M2594.5949,-179C2665.1471,-179 2774.2793,-179 2774.2793,-179 2774.2793,-179 2774.2793,-205.9909 2774.2793,-205.9909"/>
<polygon fill="#000000" stroke="#000000" points="2770.7794,-205.9909 2774.2793,-215.9909 2777.7794,-205.991 2770.7794,-205.9909"/>
</g>
<!-- IsNotNullPipe  -->
<g id="node43" class="node">
<title>IsNotNullPipe </title>
<polygon fill="#fb8072" stroke="#000000" points="2721.3787,-252 2620.6213,-252 2620.6213,-216 2721.3787,-216 2721.3787,-252"/>
<text text-anchor="middle" x="2671" y="-229.8" font-family="Times,serif" font-size="14.00" fill="#000000">IsNotNullPipe </text>
</g>
<!-- UtilsPipesModule&#45;&gt;IsNotNullPipe  -->
<g id="edge37" class="edge">
<title>UtilsPipesModule&#45;&gt;IsNotNullPipe </title>
<path fill="none" stroke="#000000" stroke-dasharray="5,2" d="M2594.6854,-183C2623.7427,-183 2652.687,-183 2652.687,-183 2652.687,-183 2652.687,-205.8757 2652.687,-205.8757"/>
<polygon fill="#000000" stroke="#000000" points="2649.1871,-205.8757 2652.687,-215.8757 2656.1871,-205.8757 2649.1871,-205.8757"/>
</g>
<!-- IsNotUndefinedPipe  -->
<g id="node44" class="node">
<title>IsNotUndefinedPipe </title>
<polygon fill="#fb8072" stroke="#000000" points="2603.0779,-252 2468.9221,-252 2468.9221,-216 2603.0779,-216 2603.0779,-252"/>
<text text-anchor="middle" x="2536" y="-229.8" font-family="Times,serif" font-size="14.00" fill="#000000">IsNotUndefinedPipe </text>
</g>
<!-- UtilsPipesModule&#45;&gt;IsNotUndefinedPipe  -->
<g id="edge38" class="edge">
<title>UtilsPipesModule&#45;&gt;IsNotUndefinedPipe </title>
<path fill="none" stroke="#000000" stroke-dasharray="5,2" d="M2536,-187.1061C2536,-187.1061 2536,-205.991 2536,-205.991"/>
<polygon fill="#000000" stroke="#000000" points="2532.5001,-205.9909 2536,-215.991 2539.5001,-205.991 2532.5001,-205.9909"/>
</g>
<!-- IsNullPipe  -->
<g id="node45" class="node">
<title>IsNullPipe </title>
<polygon fill="#fb8072" stroke="#000000" points="2450.8817,-252 2371.1183,-252 2371.1183,-216 2450.8817,-216 2450.8817,-252"/>
<text text-anchor="middle" x="2411" y="-229.8" font-family="Times,serif" font-size="14.00" fill="#000000">IsNullPipe </text>
</g>
<!-- UtilsPipesModule&#45;&gt;IsNullPipe  -->
<g id="edge39" class="edge">
<title>UtilsPipesModule&#45;&gt;IsNullPipe </title>
<path fill="none" stroke="#000000" stroke-dasharray="5,2" d="M2477.4426,-183C2441.2254,-183 2401.6032,-183 2401.6032,-183 2401.6032,-183 2401.6032,-205.8757 2401.6032,-205.8757"/>
<polygon fill="#000000" stroke="#000000" points="2398.1033,-205.8757 2401.6032,-215.8757 2405.1033,-205.8757 2398.1033,-205.8757"/>
</g>
<!-- IsUndefinedPipe  -->
<g id="node46" class="node">
<title>IsUndefinedPipe </title>
<polygon fill="#fb8072" stroke="#000000" points="2353.5808,-252 2240.4192,-252 2240.4192,-216 2353.5808,-216 2353.5808,-252"/>
<text text-anchor="middle" x="2297" y="-229.8" font-family="Times,serif" font-size="14.00" fill="#000000">IsUndefinedPipe </text>
</g>
<!-- UtilsPipesModule&#45;&gt;IsUndefinedPipe  -->
<g id="edge40" class="edge">
<title>UtilsPipesModule&#45;&gt;IsUndefinedPipe </title>
<path fill="none" stroke="#000000" stroke-dasharray="5,2" d="M2477.2127,-179C2402.7201,-179 2283.9033,-179 2283.9033,-179 2283.9033,-179 2283.9033,-205.9909 2283.9033,-205.9909"/>
<polygon fill="#000000" stroke="#000000" points="2280.4034,-205.9909 2283.9033,-215.9909 2287.4034,-205.991 2280.4034,-205.9909"/>
</g>
<!-- ProgressPipe  -->
<g id="node47" class="node">
<title>ProgressPipe </title>
<polygon fill="#fb8072" stroke="#000000" points="2222.0963,-252 2129.9037,-252 2129.9037,-216 2222.0963,-216 2222.0963,-252"/>
<text text-anchor="middle" x="2176" y="-229.8" font-family="Times,serif" font-size="14.00" fill="#000000">ProgressPipe </text>
</g>
<!-- UtilsPipesModule&#45;&gt;ProgressPipe  -->
<g id="edge41" class="edge">
<title>UtilsPipesModule&#45;&gt;ProgressPipe </title>
<path fill="none" stroke="#000000" stroke-dasharray="5,2" d="M2477.1259,-175C2376.429,-175 2181.875,-175 2181.875,-175 2181.875,-175 2181.875,-205.9775 2181.875,-205.9775"/>
<polygon fill="#000000" stroke="#000000" points="2178.3751,-205.9774 2181.875,-215.9775 2185.3751,-205.9775 2178.3751,-205.9774"/>
</g>
<!-- SafeHtmlPipe  -->
<g id="node48" class="node">
<title>SafeHtmlPipe </title>
<polygon fill="#fb8072" stroke="#000000" points="2112.0386,-252 2013.9614,-252 2013.9614,-216 2112.0386,-216 2112.0386,-252"/>
<text text-anchor="middle" x="2063" y="-229.8" font-family="Times,serif" font-size="14.00" fill="#000000">SafeHtmlPipe </text>
</g>
<!-- UtilsPipesModule&#45;&gt;SafeHtmlPipe  -->
<g id="edge42" class="edge">
<title>UtilsPipesModule&#45;&gt;SafeHtmlPipe </title>
<path fill="none" stroke="#000000" stroke-dasharray="5,2" d="M2477.0283,-171C2351.7351,-171 2070.375,-171 2070.375,-171 2070.375,-171 2070.375,-205.7778 2070.375,-205.7778"/>
<polygon fill="#000000" stroke="#000000" points="2066.8751,-205.7778 2070.375,-215.7778 2073.8751,-205.7778 2066.8751,-205.7778"/>
</g>
</g>
</svg>
