<?xml version="1.0" encoding="UTF-8" standalone="no"?>
<!DOCTYPE svg PUBLIC "-//W3C//DTD SVG 1.1//EN"
 "http://www.w3.org/Graphics/SVG/1.1/DTD/svg11.dtd">
<!-- Generated by graphviz version 2.40.1 (20161225.0304)
 -->
<!-- Title: dependencies Pages: 1 -->
<svg width="504pt" height="284pt"
 viewBox="0.00 0.00 504.00 284.00" xmlns="http://www.w3.org/2000/svg" xmlns:xlink="http://www.w3.org/1999/xlink">
<g id="graph0" class="graph" transform="scale(1 1) rotate(0) translate(4 280)">
<title>dependencies</title>
<polygon fill="#ffffff" stroke="transparent" points="-4,4 -4,-280 500,-280 500,4 -4,4"/>
<text text-anchor="start" x="227.0091" y="-42.4" font-family="sans-serif" font-weight="bold" font-size="14.00" fill="#000000">Legend</text>
<polygon fill="#ffffb3" stroke="transparent" points="14,-10 14,-30 34,-30 34,-10 14,-10"/>
<text text-anchor="start" x="37.629" y="-15.4" font-family="sans-serif" font-size="14.00" fill="#000000"> &#160;Declarations</text>
<polygon fill="#8dd3c7" stroke="transparent" points="127,-10 127,-30 147,-30 147,-10 127,-10"/>
<text text-anchor="start" x="150.7251" y="-15.4" font-family="sans-serif" font-size="14.00" fill="#000000"> &#160;Module</text>
<polygon fill="#80b1d3" stroke="transparent" points="213,-10 213,-30 233,-30 233,-10 213,-10"/>
<text text-anchor="start" x="236.7812" y="-15.4" font-family="sans-serif" font-size="14.00" fill="#000000"> &#160;Bootstrap</text>
<polygon fill="#fdb462" stroke="transparent" points="310,-10 310,-30 330,-30 330,-10 310,-10"/>
<text text-anchor="start" x="333.6732" y="-15.4" font-family="sans-serif" font-size="14.00" fill="#000000"> &#160;Providers</text>
<polygon fill="#fb8072" stroke="transparent" points="406,-10 406,-30 426,-30 426,-10 406,-10"/>
<text text-anchor="start" x="429.7258" y="-15.4" font-family="sans-serif" font-size="14.00" fill="#000000"> &#160;Exports</text>
<g id="clust1" class="cluster">
<title>cluster_StringCheckPipesModule</title>
<polygon fill="none" stroke="#000000" stroke-dasharray="1,5" points="15,-70 15,-268 481,-268 481,-70 15,-70"/>
</g>
<g id="clust2" class="cluster">
<title>cluster_StringCheckPipesModule_declarations</title>
<polygon fill="none" stroke="#000000" points="28,-78 28,-130 469,-130 469,-78 28,-78"/>
</g>
<g id="clust7" class="cluster">
<title>cluster_StringCheckPipesModule_exports</title>
<polygon fill="none" stroke="#000000" points="23,-208 23,-260 473,-260 473,-208 23,-208"/>
</g>
<!-- StringEndsWithPipe -->
<g id="node1" class="node">
<title>StringEndsWithPipe</title>
<polygon fill="#ffffb3" stroke="#000000" points="460.6052,-122 329.3948,-122 329.3948,-86 460.6052,-86 460.6052,-122"/>
<text text-anchor="middle" x="395" y="-99.8" font-family="Times,serif" font-size="14.00" fill="#000000">StringEndsWithPipe</text>
</g>
<!-- StringCheckPipesModule -->
<g id="node4" class="node">
<title>StringCheckPipesModule</title>
<polygon fill="#8dd3c7" stroke="#000000" points="329.8725,-187 326.8725,-191 305.8725,-191 302.8725,-187 170.1275,-187 170.1275,-151 329.8725,-151 329.8725,-187"/>
<text text-anchor="middle" x="250" y="-164.8" font-family="Times,serif" font-size="14.00" fill="#000000">StringCheckPipesModule</text>
</g>
<!-- StringEndsWithPipe&#45;&gt;StringCheckPipesModule -->
<g id="edge1" class="edge">
<title>StringEndsWithPipe&#45;&gt;StringCheckPipesModule</title>
<path fill="none" stroke="#000000" d="M329.2135,-104C323.8033,-104 320.358,-104 320.358,-104 320.358,-104 320.358,-140.8939 320.358,-140.8939"/>
<polygon fill="#000000" stroke="#000000" points="316.8581,-140.8938 320.358,-150.8939 323.8581,-140.8939 316.8581,-140.8938"/>
</g>
<!-- StringIncludesPipe -->
<g id="node2" class="node">
<title>StringIncludesPipe</title>
<polygon fill="#ffffb3" stroke="#000000" points="311.0381,-122 188.9619,-122 188.9619,-86 311.0381,-86 311.0381,-122"/>
<text text-anchor="middle" x="250" y="-99.8" font-family="Times,serif" font-size="14.00" fill="#000000">StringIncludesPipe</text>
</g>
<!-- StringIncludesPipe&#45;&gt;StringCheckPipesModule -->
<g id="edge2" class="edge">
<title>StringIncludesPipe&#45;&gt;StringCheckPipesModule</title>
<path fill="none" stroke="#000000" d="M250,-122.1061C250,-122.1061 250,-140.991 250,-140.991"/>
<polygon fill="#000000" stroke="#000000" points="246.5001,-140.9909 250,-150.991 253.5001,-140.991 246.5001,-140.9909"/>
</g>
<!-- StringStartsWithPipe -->
<g id="node3" class="node">
<title>StringStartsWithPipe</title>
<polygon fill="#ffffb3" stroke="#000000" points="170.4916,-122 35.5084,-122 35.5084,-86 170.4916,-86 170.4916,-122"/>
<text text-anchor="middle" x="103" y="-99.8" font-family="Times,serif" font-size="14.00" fill="#000000">StringStartsWithPipe</text>
</g>
<!-- StringStartsWithPipe&#45;&gt;StringCheckPipesModule -->
<g id="edge3" class="edge">
<title>StringStartsWithPipe&#45;&gt;StringCheckPipesModule</title>
<path fill="none" stroke="#000000" d="M170.5242,-104C176.0773,-104 179.6136,-104 179.6136,-104 179.6136,-104 179.6136,-140.8939 179.6136,-140.8939"/>
<polygon fill="#000000" stroke="#000000" points="176.1137,-140.8938 179.6136,-150.8939 183.1137,-140.8939 176.1137,-140.8938"/>
</g>
<!-- StringEndsWithPipe  -->
<g id="node5" class="node">
<title>StringEndsWithPipe </title>
<polygon fill="#fb8072" stroke="#000000" points="465.1058,-252 330.8942,-252 330.8942,-216 465.1058,-216 465.1058,-252"/>
<text text-anchor="middle" x="398" y="-229.8" font-family="Times,serif" font-size="14.00" fill="#000000">StringEndsWithPipe </text>
</g>
<!-- StringCheckPipesModule&#45;&gt;StringEndsWithPipe  -->
<g id="edge4" class="edge">
<title>StringCheckPipesModule&#45;&gt;StringEndsWithPipe </title>
<path fill="none" stroke="#000000" stroke-dasharray="5,2" d="M321.4774,-187.1061C321.4774,-206.3391 321.4774,-234 321.4774,-234 321.4774,-234 322.4157,-234 322.4157,-234"/>
<polygon fill="#000000" stroke="#000000" points="320.8606,-237.5001 330.8606,-234 320.8605,-230.5001 320.8606,-237.5001"/>
</g>
<!-- StringIncludesPipe  -->
<g id="node6" class="node">
<title>StringIncludesPipe </title>
<polygon fill="#fb8072" stroke="#000000" points="313.0372,-252 186.9628,-252 186.9628,-216 313.0372,-216 313.0372,-252"/>
<text text-anchor="middle" x="250" y="-229.8" font-family="Times,serif" font-size="14.00" fill="#000000">StringIncludesPipe </text>
</g>
<!-- StringCheckPipesModule&#45;&gt;StringIncludesPipe  -->
<g id="edge5" class="edge">
<title>StringCheckPipesModule&#45;&gt;StringIncludesPipe </title>
<path fill="none" stroke="#000000" stroke-dasharray="5,2" d="M250,-187.1061C250,-187.1061 250,-205.991 250,-205.991"/>
<polygon fill="#000000" stroke="#000000" points="246.5001,-205.9909 250,-215.991 253.5001,-205.991 246.5001,-205.9909"/>
</g>
<!-- StringStartsWithPipe  -->
<g id="node7" class="node">
<title>StringStartsWithPipe </title>
<polygon fill="#fb8072" stroke="#000000" points="169.4925,-252 30.5075,-252 30.5075,-216 169.4925,-216 169.4925,-252"/>
<text text-anchor="middle" x="100" y="-229.8" font-family="Times,serif" font-size="14.00" fill="#000000">StringStartsWithPipe </text>
</g>
<!-- StringCheckPipesModule&#45;&gt;StringStartsWithPipe  -->
<g id="edge6" class="edge">
<title>StringCheckPipesModule&#45;&gt;StringStartsWithPipe </title>
<path fill="none" stroke="#000000" stroke-dasharray="5,2" d="M178.5226,-187.1061C178.5226,-206.3391 178.5226,-234 178.5226,-234 178.5226,-234 177.6218,-234 177.6218,-234"/>
<polygon fill="#000000" stroke="#000000" points="179.5151,-230.5001 169.5151,-234 179.515,-237.5001 179.5151,-230.5001"/>
</g>
</g>
</svg>
