<?xml version="1.0" encoding="UTF-8" standalone="no"?>
<!DOCTYPE svg PUBLIC "-//W3C//DTD SVG 1.1//EN"
 "http://www.w3.org/Graphics/SVG/1.1/DTD/svg11.dtd">
<!-- Generated by graphviz version 2.40.1 (20161225.0304)
 -->
<!-- Title: dependencies Pages: 1 -->
<svg width="848pt" height="284pt"
 viewBox="0.00 0.00 848.00 284.00" xmlns="http://www.w3.org/2000/svg" xmlns:xlink="http://www.w3.org/1999/xlink">
<g id="graph0" class="graph" transform="scale(1 1) rotate(0) translate(4 280)">
<title>dependencies</title>
<polygon fill="#ffffff" stroke="transparent" points="-4,4 -4,-280 844,-280 844,4 -4,4"/>
<text text-anchor="start" x="399.0091" y="-42.4" font-family="sans-serif" font-weight="bold" font-size="14.00" fill="#000000">Legend</text>
<polygon fill="#ffffb3" stroke="transparent" points="186,-10 186,-30 206,-30 206,-10 186,-10"/>
<text text-anchor="start" x="209.629" y="-15.4" font-family="sans-serif" font-size="14.00" fill="#000000"> &#160;Declarations</text>
<polygon fill="#8dd3c7" stroke="transparent" points="299,-10 299,-30 319,-30 319,-10 299,-10"/>
<text text-anchor="start" x="322.7251" y="-15.4" font-family="sans-serif" font-size="14.00" fill="#000000"> &#160;Module</text>
<polygon fill="#80b1d3" stroke="transparent" points="385,-10 385,-30 405,-30 405,-10 385,-10"/>
<text text-anchor="start" x="408.7812" y="-15.4" font-family="sans-serif" font-size="14.00" fill="#000000"> &#160;Bootstrap</text>
<polygon fill="#fdb462" stroke="transparent" points="482,-10 482,-30 502,-30 502,-10 482,-10"/>
<text text-anchor="start" x="505.6732" y="-15.4" font-family="sans-serif" font-size="14.00" fill="#000000"> &#160;Providers</text>
<polygon fill="#fb8072" stroke="transparent" points="578,-10 578,-30 598,-30 598,-10 578,-10"/>
<text text-anchor="start" x="601.7258" y="-15.4" font-family="sans-serif" font-size="14.00" fill="#000000"> &#160;Exports</text>
<g id="clust1" class="cluster">
<title>cluster_StringTransformPipesModule</title>
<polygon fill="none" stroke="#000000" stroke-dasharray="1,5" points="8,-70 8,-268 832,-268 832,-70 8,-70"/>
</g>
<g id="clust2" class="cluster">
<title>cluster_StringTransformPipesModule_declarations</title>
<polygon fill="none" stroke="#000000" points="25,-78 25,-130 816,-130 816,-78 25,-78"/>
</g>
<g id="clust9" class="cluster">
<title>cluster_StringTransformPipesModule_exports</title>
<polygon fill="none" stroke="#000000" points="16,-208 16,-260 824,-260 824,-208 16,-208"/>
</g>
<!-- StringFormatUnicornPipe -->
<g id="node1" class="node">
<title>StringFormatUnicornPipe</title>
<polygon fill="#ffffb3" stroke="#000000" points="807.9242,-122 646.0758,-122 646.0758,-86 807.9242,-86 807.9242,-122"/>
<text text-anchor="middle" x="727" y="-99.8" font-family="Times,serif" font-size="14.00" fill="#000000">StringFormatUnicornPipe</text>
</g>
<!-- StringTransformPipesModule -->
<g id="node6" class="node">
<title>StringTransformPipesModule</title>
<polygon fill="#8dd3c7" stroke="#000000" points="504.6909,-187 501.6909,-191 480.6909,-191 477.6909,-187 321.3091,-187 321.3091,-151 504.6909,-151 504.6909,-187"/>
<text text-anchor="middle" x="413" y="-164.8" font-family="Times,serif" font-size="14.00" fill="#000000">StringTransformPipesModule</text>
</g>
<!-- StringFormatUnicornPipe&#45;&gt;StringTransformPipesModule -->
<g id="edge1" class="edge">
<title>StringFormatUnicornPipe&#45;&gt;StringTransformPipesModule</title>
<path fill="none" stroke="#000000" d="M755.6539,-122.2667C755.6539,-140.5552 755.6539,-166 755.6539,-166 755.6539,-166 514.825,-166 514.825,-166"/>
<polygon fill="#000000" stroke="#000000" points="514.825,-162.5001 504.825,-166 514.8249,-169.5001 514.825,-162.5001"/>
</g>
<!-- StringNl2brPipe -->
<g id="node2" class="node">
<title>StringNl2brPipe</title>
<polygon fill="#ffffb3" stroke="#000000" points="627.7702,-122 520.2298,-122 520.2298,-86 627.7702,-86 627.7702,-122"/>
<text text-anchor="middle" x="574" y="-99.8" font-family="Times,serif" font-size="14.00" fill="#000000">StringNl2brPipe</text>
</g>
<!-- StringNl2brPipe&#45;&gt;StringTransformPipesModule -->
<g id="edge2" class="edge">
<title>StringNl2brPipe&#45;&gt;StringTransformPipesModule</title>
<path fill="none" stroke="#000000" d="M592.7117,-122.0091C592.7117,-138.0494 592.7117,-159 592.7117,-159 592.7117,-159 514.6985,-159 514.6985,-159"/>
<polygon fill="#000000" stroke="#000000" points="514.6985,-155.5001 504.6985,-159 514.6984,-162.5001 514.6985,-155.5001"/>
</g>
<!-- StringTruncateByWordsPipe -->
<g id="node3" class="node">
<title>StringTruncateByWordsPipe</title>
<polygon fill="#ffffb3" stroke="#000000" points="502.0169,-122 323.9831,-122 323.9831,-86 502.0169,-86 502.0169,-122"/>
<text text-anchor="middle" x="413" y="-99.8" font-family="Times,serif" font-size="14.00" fill="#000000">StringTruncateByWordsPipe</text>
</g>
<!-- StringTruncateByWordsPipe&#45;&gt;StringTransformPipesModule -->
<g id="edge3" class="edge">
<title>StringTruncateByWordsPipe&#45;&gt;StringTransformPipesModule</title>
<path fill="none" stroke="#000000" d="M413,-122.1061C413,-122.1061 413,-140.991 413,-140.991"/>
<polygon fill="#000000" stroke="#000000" points="409.5001,-140.9909 413,-150.991 416.5001,-140.991 409.5001,-140.9909"/>
</g>
<!-- StringTruncatePipe -->
<g id="node4" class="node">
<title>StringTruncatePipe</title>
<polygon fill="#ffffb3" stroke="#000000" points="305.3599,-122 180.6401,-122 180.6401,-86 305.3599,-86 305.3599,-122"/>
<text text-anchor="middle" x="243" y="-99.8" font-family="Times,serif" font-size="14.00" fill="#000000">StringTruncatePipe</text>
</g>
<!-- StringTruncatePipe&#45;&gt;StringTransformPipesModule -->
<g id="edge4" class="edge">
<title>StringTruncatePipe&#45;&gt;StringTransformPipesModule</title>
<path fill="none" stroke="#000000" d="M262.9766,-122.0091C262.9766,-138.0494 262.9766,-159 262.9766,-159 262.9766,-159 310.9796,-159 310.9796,-159"/>
<polygon fill="#000000" stroke="#000000" points="310.9796,-162.5001 320.9796,-159 310.9795,-155.5001 310.9796,-162.5001"/>
</g>
<!-- StringUnescapePipe -->
<g id="node5" class="node">
<title>StringUnescapePipe</title>
<polygon fill="#ffffb3" stroke="#000000" points="162.5227,-122 33.4773,-122 33.4773,-86 162.5227,-86 162.5227,-122"/>
<text text-anchor="middle" x="98" y="-99.8" font-family="Times,serif" font-size="14.00" fill="#000000">StringUnescapePipe</text>
</g>
<!-- StringUnescapePipe&#45;&gt;StringTransformPipesModule -->
<g id="edge5" class="edge">
<title>StringUnescapePipe&#45;&gt;StringTransformPipesModule</title>
<path fill="none" stroke="#000000" d="M116.087,-122.2667C116.087,-140.5552 116.087,-166 116.087,-166 116.087,-166 311.0882,-166 311.0882,-166"/>
<polygon fill="#000000" stroke="#000000" points="311.0883,-169.5001 321.0882,-166 311.0882,-162.5001 311.0883,-169.5001"/>
</g>
<!-- StringFormatUnicornPipe  -->
<g id="node7" class="node">
<title>StringFormatUnicornPipe </title>
<polygon fill="#fb8072" stroke="#000000" points="816.4236,-252 651.5764,-252 651.5764,-216 816.4236,-216 816.4236,-252"/>
<text text-anchor="middle" x="734" y="-229.8" font-family="Times,serif" font-size="14.00" fill="#000000">StringFormatUnicornPipe </text>
</g>
<!-- StringTransformPipesModule&#45;&gt;StringFormatUnicornPipe  -->
<g id="edge6" class="edge">
<title>StringTransformPipesModule&#45;&gt;StringFormatUnicornPipe </title>
<path fill="none" stroke="#000000" stroke-dasharray="5,2" d="M504.9464,-173C590.082,-173 703.5961,-173 703.5961,-173 703.5961,-173 703.5961,-205.698 703.5961,-205.698"/>
<polygon fill="#000000" stroke="#000000" points="700.0962,-205.698 703.5961,-215.698 707.0962,-205.698 700.0962,-205.698"/>
</g>
<!-- StringNl2brPipe  -->
<g id="node8" class="node">
<title>StringNl2brPipe </title>
<polygon fill="#fb8072" stroke="#000000" points="633.7703,-252 522.2297,-252 522.2297,-216 633.7703,-216 633.7703,-252"/>
<text text-anchor="middle" x="578" y="-229.8" font-family="Times,serif" font-size="14.00" fill="#000000">StringNl2brPipe </text>
</g>
<!-- StringTransformPipesModule&#45;&gt;StringNl2brPipe  -->
<g id="edge7" class="edge">
<title>StringTransformPipesModule&#45;&gt;StringNl2brPipe </title>
<path fill="none" stroke="#000000" stroke-dasharray="5,2" d="M504.9478,-180C533.4539,-180 557.5383,-180 557.5383,-180 557.5383,-180 557.5383,-205.7181 557.5383,-205.7181"/>
<polygon fill="#000000" stroke="#000000" points="554.0384,-205.718 557.5383,-215.7181 561.0384,-205.7181 554.0384,-205.718"/>
</g>
<!-- StringTruncateByWordsPipe  -->
<g id="node9" class="node">
<title>StringTruncateByWordsPipe </title>
<polygon fill="#fb8072" stroke="#000000" points="504.0162,-252 321.9838,-252 321.9838,-216 504.0162,-216 504.0162,-252"/>
<text text-anchor="middle" x="413" y="-229.8" font-family="Times,serif" font-size="14.00" fill="#000000">StringTruncateByWordsPipe </text>
</g>
<!-- StringTransformPipesModule&#45;&gt;StringTruncateByWordsPipe  -->
<g id="edge8" class="edge">
<title>StringTransformPipesModule&#45;&gt;StringTruncateByWordsPipe </title>
<path fill="none" stroke="#000000" stroke-dasharray="5,2" d="M413,-187.1061C413,-187.1061 413,-205.991 413,-205.991"/>
<polygon fill="#000000" stroke="#000000" points="409.5001,-205.9909 413,-215.991 416.5001,-205.991 409.5001,-205.9909"/>
</g>
<!-- StringTruncatePipe  -->
<g id="node10" class="node">
<title>StringTruncatePipe </title>
<polygon fill="#fb8072" stroke="#000000" points="304.3603,-252 175.6397,-252 175.6397,-216 304.3603,-216 304.3603,-252"/>
<text text-anchor="middle" x="240" y="-229.8" font-family="Times,serif" font-size="14.00" fill="#000000">StringTruncatePipe </text>
</g>
<!-- StringTransformPipesModule&#45;&gt;StringTruncatePipe  -->
<g id="edge9" class="edge">
<title>StringTransformPipesModule&#45;&gt;StringTruncatePipe </title>
<path fill="none" stroke="#000000" stroke-dasharray="5,2" d="M321.3073,-180C272.2302,-180 221.7734,-180 221.7734,-180 221.7734,-180 221.7734,-205.7181 221.7734,-205.7181"/>
<polygon fill="#000000" stroke="#000000" points="218.2735,-205.718 221.7734,-215.7181 225.2735,-205.7181 218.2735,-205.718"/>
</g>
<!-- StringUnescapePipe  -->
<g id="node11" class="node">
<title>StringUnescapePipe </title>
<polygon fill="#fb8072" stroke="#000000" points="157.5218,-252 24.4782,-252 24.4782,-216 157.5218,-216 157.5218,-252"/>
<text text-anchor="middle" x="91" y="-229.8" font-family="Times,serif" font-size="14.00" fill="#000000">StringUnescapePipe </text>
</g>
<!-- StringTransformPipesModule&#45;&gt;StringUnescapePipe  -->
<g id="edge10" class="edge">
<title>StringTransformPipesModule&#45;&gt;StringUnescapePipe </title>
<path fill="none" stroke="#000000" stroke-dasharray="5,2" d="M320.9948,-173C220.8066,-173 74.663,-173 74.663,-173 74.663,-173 74.663,-205.698 74.663,-205.698"/>
<polygon fill="#000000" stroke="#000000" points="71.1629,-205.698 74.663,-215.698 78.1629,-205.698 71.1629,-205.698"/>
</g>
</g>
</svg>
