<?xml version="1.0" encoding="UTF-8" standalone="no"?>
<!DOCTYPE svg PUBLIC "-//W3C//DTD SVG 1.1//EN"
 "http://www.w3.org/Graphics/SVG/1.1/DTD/svg11.dtd">
<!-- Generated by graphviz version 2.40.1 (20161225.0304)
 -->
<!-- Title: dependencies Pages: 1 -->
<svg width="504pt" height="284pt"
 viewBox="0.00 0.00 504.00 284.00" xmlns="http://www.w3.org/2000/svg" xmlns:xlink="http://www.w3.org/1999/xlink">
<g id="graph0" class="graph" transform="scale(1 1) rotate(0) translate(4 280)">
<title>dependencies</title>
<polygon fill="#ffffff" stroke="transparent" points="-4,4 -4,-280 500,-280 500,4 -4,4"/>
<text text-anchor="start" x="227.0091" y="-42.4" font-family="sans-serif" font-weight="bold" font-size="14.00" fill="#000000">Legend</text>
<polygon fill="#ffffb3" stroke="transparent" points="14,-10 14,-30 34,-30 34,-10 14,-10"/>
<text text-anchor="start" x="37.629" y="-15.4" font-family="sans-serif" font-size="14.00" fill="#000000"> &#160;Declarations</text>
<polygon fill="#8dd3c7" stroke="transparent" points="127,-10 127,-30 147,-30 147,-10 127,-10"/>
<text text-anchor="start" x="150.7251" y="-15.4" font-family="sans-serif" font-size="14.00" fill="#000000"> &#160;Module</text>
<polygon fill="#80b1d3" stroke="transparent" points="213,-10 213,-30 233,-30 233,-10 213,-10"/>
<text text-anchor="start" x="236.7812" y="-15.4" font-family="sans-serif" font-size="14.00" fill="#000000"> &#160;Bootstrap</text>
<polygon fill="#fdb462" stroke="transparent" points="310,-10 310,-30 330,-30 330,-10 310,-10"/>
<text text-anchor="start" x="333.6732" y="-15.4" font-family="sans-serif" font-size="14.00" fill="#000000"> &#160;Providers</text>
<polygon fill="#fb8072" stroke="transparent" points="406,-10 406,-30 426,-30 426,-10 406,-10"/>
<text text-anchor="start" x="429.7258" y="-15.4" font-family="sans-serif" font-size="14.00" fill="#000000"> &#160;Exports</text>
<g id="clust1" class="cluster">
<title>cluster_DatetimePipesModule</title>
<polygon fill="none" stroke="#000000" stroke-dasharray="1,5" points="110,-70 110,-268 386,-268 386,-70 110,-70"/>
</g>
<g id="clust2" class="cluster">
<title>cluster_DatetimePipesModule_declarations</title>
<polygon fill="none" stroke="#000000" points="122,-78 122,-130 374,-130 374,-78 122,-78"/>
</g>
<g id="clust6" class="cluster">
<title>cluster_DatetimePipesModule_exports</title>
<polygon fill="none" stroke="#000000" points="118,-208 118,-260 378,-260 378,-208 118,-208"/>
</g>
<!-- ElapsedTimePipe -->
<g id="node1" class="node">
<title>ElapsedTimePipe</title>
<polygon fill="#ffffb3" stroke="#000000" points="366.2535,-122 251.7465,-122 251.7465,-86 366.2535,-86 366.2535,-122"/>
<text text-anchor="middle" x="309" y="-99.8" font-family="Times,serif" font-size="14.00" fill="#000000">ElapsedTimePipe</text>
</g>
<!-- DatetimePipesModule -->
<g id="node3" class="node">
<title>DatetimePipesModule</title>
<polygon fill="#8dd3c7" stroke="#000000" points="317.6951,-187 314.6951,-191 293.6951,-191 290.6951,-187 176.3049,-187 176.3049,-151 317.6951,-151 317.6951,-187"/>
<text text-anchor="middle" x="247" y="-164.8" font-family="Times,serif" font-size="14.00" fill="#000000">DatetimePipesModule</text>
</g>
<!-- ElapsedTimePipe&#45;&gt;DatetimePipesModule -->
<g id="edge1" class="edge">
<title>ElapsedTimePipe&#45;&gt;DatetimePipesModule</title>
<path fill="none" stroke="#000000" d="M284.6105,-122.1061C284.6105,-122.1061 284.6105,-140.991 284.6105,-140.991"/>
<polygon fill="#000000" stroke="#000000" points="281.1105,-140.9909 284.6105,-150.991 288.1105,-140.991 281.1105,-140.9909"/>
</g>
<!-- TimestampPipe -->
<g id="node2" class="node">
<title>TimestampPipe</title>
<polygon fill="#ffffb3" stroke="#000000" points="233.8767,-122 130.1233,-122 130.1233,-86 233.8767,-86 233.8767,-122"/>
<text text-anchor="middle" x="182" y="-99.8" font-family="Times,serif" font-size="14.00" fill="#000000">TimestampPipe</text>
</g>
<!-- TimestampPipe&#45;&gt;DatetimePipesModule -->
<g id="edge2" class="edge">
<title>TimestampPipe&#45;&gt;DatetimePipesModule</title>
<path fill="none" stroke="#000000" d="M205.1704,-122.1061C205.1704,-122.1061 205.1704,-140.991 205.1704,-140.991"/>
<polygon fill="#000000" stroke="#000000" points="201.6705,-140.9909 205.1704,-150.991 208.6705,-140.991 201.6705,-140.9909"/>
</g>
<!-- ElapsedTimePipe  -->
<g id="node4" class="node">
<title>ElapsedTimePipe </title>
<polygon fill="#fb8072" stroke="#000000" points="370.2535,-252 251.7465,-252 251.7465,-216 370.2535,-216 370.2535,-252"/>
<text text-anchor="middle" x="311" y="-229.8" font-family="Times,serif" font-size="14.00" fill="#000000">ElapsedTimePipe </text>
</g>
<!-- DatetimePipesModule&#45;&gt;ElapsedTimePipe  -->
<g id="edge3" class="edge">
<title>DatetimePipesModule&#45;&gt;ElapsedTimePipe </title>
<path fill="none" stroke="#000000" stroke-dasharray="5,2" d="M284.7355,-187.1061C284.7355,-187.1061 284.7355,-205.991 284.7355,-205.991"/>
<polygon fill="#000000" stroke="#000000" points="281.2355,-205.9909 284.7355,-215.991 288.2355,-205.991 281.2355,-205.9909"/>
</g>
<!-- TimestampPipe  -->
<g id="node5" class="node">
<title>TimestampPipe </title>
<polygon fill="#fb8072" stroke="#000000" points="233.8773,-252 126.1227,-252 126.1227,-216 233.8773,-216 233.8773,-252"/>
<text text-anchor="middle" x="180" y="-229.8" font-family="Times,serif" font-size="14.00" fill="#000000">TimestampPipe </text>
</g>
<!-- DatetimePipesModule&#45;&gt;TimestampPipe  -->
<g id="edge4" class="edge">
<title>DatetimePipesModule&#45;&gt;TimestampPipe </title>
<path fill="none" stroke="#000000" stroke-dasharray="5,2" d="M205.0454,-187.1061C205.0454,-187.1061 205.0454,-205.991 205.0454,-205.991"/>
<polygon fill="#000000" stroke="#000000" points="201.5455,-205.9909 205.0454,-215.991 208.5455,-205.991 201.5455,-205.9909"/>
</g>
</g>
</svg>
